<?xml version="1.0" standalone="no"?>
<!DOCTYPE svg PUBLIC "-//W3C//DTD SVG 1.1//EN" "http://www.w3.org/Graphics/SVG/1.1/DTD/svg11.dtd" >
<svg xmlns="http://www.w3.org/2000/svg">
<metadata>Generated by IcoMoon</metadata>
<defs>
<font id="icomoon" horiz-adv-x="1024">
<font-face units-per-em="1024" ascent="896" descent="-128" />
<missing-glyph horiz-adv-x="1024" />
<glyph unicode="&#x20;" d="" />
<glyph unicode="&#xe055;" glyph-name="instagram-square" d="M448 490.68c58.877-0.021 106.676-47.809 106.721-106.68 0-58.879-47.801-106.68-106.68-106.68s-106.68 47.801-106.68 106.68c0 58.865 47.779 106.658 106.639 106.68zM697.42 572.68c16.699-42.141 12.939-142.119 12.939-188.68s3.84-146.66-12.859-188.66c-10.967-27.791-33.029-49.854-60.82-60.82-42.119-16.719-141.98-12.859-188.6-12.859s-146.619-3.721-188.619 12.859c-27.791 10.967-49.855 33.029-60.82 60.82-16.641 42.141-12.941 142.121-12.941 188.68 0 46.561-3.699 146.66 12.861 188.66 10.965 27.791 33.029 49.854 60.82 60.82 42.119 16.721 142.020 12.859 188.619 12.859s146.6 3.721 188.6-12.859c27.791-10.967 49.854-33.029 60.82-60.82zM448 220c0.068 0 0.133-0.004 0.199-0.004 90.404 0 163.801 73.396 163.801 163.801v0.203c0 90.514-73.486 164-164 164s-164-73.486-164-164 73.486-164 164-164zM618.76 516.6c21.074 0.012 38.26 17.041 38.26 38.117v0.164c0 21.127-17.152 38.279-38.279 38.279-21.129 0-38.281-17.152-38.281-38.279 0-21.129 17.152-38.281 38.281-38.281h0.020zM800 832c52.984 0 96-43.016 96-96v-704c0-52.984-43.016-96-96-96h-704c-52.984 0-96 43.016-96 96v704c0 52.984 43.016 96 96 96h704zM765.76 252c2.98 52.881 2.98 211.12 0 263.76-2.439 51.26-14.359 96.701-51.699 134.1s-82.74 49.121-134 51.701c-52.82 2.979-211.18 2.979-264 0-51.061-2.441-96.441-14.24-134-51.561-37.561-37.32-49.121-82.74-51.701-134-2.979-52.779-2.979-211.16 0-264 2.441-51.16 14.221-96.6 51.701-134 37.479-37.4 82.74-49.119 134-51.699 52.82-2.98 211.18-2.98 264 0 51.199 2.439 96.58 14.379 134 51.699s49.119 82.74 51.699 134z" />
<glyph unicode="&#xe07b;" glyph-name="tiktok" d="M896 476.18h-1.025c-91.020 0-175.686 29.232-244.514 78.5v-357.44c-0.066-179.371-145.715-324.978-325.102-324.978-179.428 0-325.1 145.672-325.1 325.1s145.672 325.1 325.1 325.1c15.258 0 29.939-1.043 44.641-3.080v-179.781c-14.137 4.447-29.178 6.846-44.775 6.846-82.367 0-149.24-66.873-149.24-149.24 0-82.369 66.873-149.24 149.24-149.24 82.369 0 149.236 66.908 149.236 149.275v698.76h176c-0.006-0.676-0.010-1.354-0.010-2.031 0-14.52 1.277-28.488 3.729-42.309v0c12.572-67.154 52.396-124.723 107.82-160.439 38.357-25.363 84.318-40.135 133.701-40.135 0.018 0 0.281-0.146 0.299-0.146v-174.76z" />
<glyph unicode="&#xe851;" glyph-name="search" d="M1017.856-92.16l-311.296 312.32c64.512 71.68 104.448 166.912 104.448 270.336 0 223.232-182.272 405.504-405.504 405.504s-405.504-182.272-405.504-405.504 182.272-405.504 405.504-405.504c104.448 0 198.656 39.936 270.336 104.448l311.296-311.296c5.12-4.096 10.24-6.144 15.36-6.144s11.264 2.048 15.36 6.144c8.192 8.192 8.192 21.504 0 29.696zM43.008 490.496c0 200.704 162.816 362.496 362.496 362.496s362.496-161.792 362.496-362.496-162.816-362.496-362.496-362.496-362.496 162.816-362.496 362.496z" />
<glyph unicode="&#xe876;" glyph-name="youtube" d="M512 6.144c-50.176 0-100.352 2.048-149.504 6.144l-226.304 20.48c-77.824 6.144-136.192 70.656-136.192 148.48v405.504c0 77.824 58.368 142.336 136.192 148.48l226.304 19.456c99.328 9.216 199.68 9.216 299.008 0l226.304-19.456c77.824-6.144 136.192-70.656 136.192-148.48v-405.504c0-77.824-58.368-142.336-136.192-148.48l-226.304-20.48c-49.152-4.096-99.328-6.144-149.504-6.144zM512 718.848c-49.152 0-97.28-2.048-146.432-6.144l-225.28-19.456c-55.296-5.12-97.28-51.2-97.28-106.496v-405.504c0-55.296 41.984-101.376 97.28-106.496l225.28-19.456c97.28-8.192 195.584-8.192 292.864 0l225.28 19.456c55.296 5.12 97.28 51.2 97.28 106.496v405.504c0 55.296-41.984 101.376-97.28 106.496l-225.28 19.456c-49.152 4.096-97.28 6.144-146.432 6.144zM405.504 171.008c-4.096 0-7.168 0-10.24 2.048-7.168 4.096-11.264 11.264-11.264 18.432v384c0 8.192 4.096 15.36 11.264 19.456 7.168 3.072 15.36 3.072 21.504-1.024l299.008-192.512c6.144-3.072 9.216-10.24 9.216-17.408s-3.072-14.336-9.216-18.432l-299.008-191.488c-3.072-2.048-7.168-3.072-11.264-3.072zM427.008 536.576v-305.152l237.568 152.576-237.568 152.576z" />
<glyph unicode="&#xe900;" glyph-name="down-arrow2" d="M748.216 149.344c-15.658 15.584-40.984 15.524-56.568-0.134l-139.648-140.324v847.114c0 22.092-17.908 40-40 40s-40-17.908-40-40v-847.116l-139.648 140.328c-15.584 15.658-40.91 15.718-56.568 0.134-15.66-15.586-15.718-40.912-0.136-56.57l208-209.008c0.012-0.014 0.026-0.024 0.038-0.036 15.584-15.618 40.992-15.668 56.628-0.002 0.012 0.014 0.026 0.024 0.038 0.036l208 209.008c15.58 15.656 15.526 40.984-0.136 56.57z" />
<glyph unicode="&#xe901;" glyph-name="tick" d="M1009.004 745.008c-19.994 19.996-52.41 19.996-72.408 0l-613.408-613.414-235.784 235.784c-19.994 19.996-52.41 19.994-72.408 0-19.996-19.994-19.996-52.41 0-72.406l271.988-271.984c19.988-19.994 52.428-19.98 72.408 0l649.612 649.612c19.996 19.994 19.994 52.412 0 72.408z" />
<glyph unicode="&#xe902;" glyph-name="check-mark" d="M738.328 546.461c15.625-15.625 15.625-40.953 0-56.57l-268.344-268.352c-15.625-15.617-40.945-15.617-56.57 0l-127.742 127.75c-15.625 15.617-15.625 40.945 0 56.563 15.617 15.625 40.945 15.625 56.563 0l99.461-99.461 240.063 240.070c15.625 15.617 40.953 15.617 56.57 0zM1024 384c0-283.008-229.031-512-512-512-283.008 0-512 229.031-512 512 0 283.008 229.031 512 512 512 283.008 0 512-229.031 512-512zM944 384c0 238.789-193.242 432-432 432-238.789 0-432-193.242-432-432 0-238.789 193.242-432 432-432 238.789 0 432 193.242 432 432z" />
<glyph unicode="&#xe903;" glyph-name="checked" d="M780.19 454.949v-430.080h-682.665v682.667h608.059l107.278 97.522h-812.862v-877.714h877.714v617.326zM954.27 840.656l-529.065-480.793-165.792 165.303-64.366-64.366 234.546-234.544 594.407 546.133z" />
<glyph unicode="&#xe904;" glyph-name="plus" d="M972.797 435.2h-409.594v409.603c0 28.256-22.941 51.197-51.206 51.197-28.256 0-51.197-22.941-51.197-51.197v-409.603h-409.603c-28.256 0-51.197-22.941-51.197-51.197 0-28.266 22.941-51.206 51.197-51.206h409.603v-409.594c0-28.266 22.941-51.206 51.197-51.206 28.266 0 51.206 22.941 51.206 51.206v409.594h409.594c28.266 0 51.206 22.941 51.206 51.206 0 28.256-22.941 51.197-51.206 51.197z" />
<glyph unicode="&#xe905;" glyph-name="minus" d="M972.797 331.2h-921.6c-28.256 0-51.197 22.941-51.197 51.197 0 28.266 22.941 51.206 51.197 51.206h921.6c28.266 0 51.206-22.941 51.206-51.206 0-28.256-22.941-51.197-51.206-51.197z" />
<glyph unicode="&#xe906;" glyph-name="back" d="M245.060 347.451l460.488-460.335c20.206-20.155 52.943-20.155 73.2 0 20.206 20.155 20.206 52.892 0 73.047l-423.963 423.81 423.912 423.81c20.206 20.155 20.206 52.892 0 73.098-20.206 20.155-52.994 20.155-73.2 0l-460.488-460.331c-19.896-19.947-19.896-53.198 0.051-73.098z" />
<glyph unicode="&#xe907;" glyph-name="next" d="M778.935 420.549l-460.488 460.335c-20.206 20.155-52.943 20.155-73.2 0-20.206-20.155-20.206-52.892 0-73.047l423.963-423.81-423.912-423.81c-20.206-20.155-20.206-52.892 0-73.098 20.206-20.155 52.994-20.155 73.2 0l460.488 460.335c19.9 19.947 19.9 53.198-0.051 73.093z" />
<glyph unicode="&#xe908;" glyph-name="calendar-alt" horiz-adv-x="896" d="M296 320h-80c-13.2 0-24 10.8-24 24v80c0 13.2 10.8 24 24 24h80c13.2 0 24-10.8 24-24v-80c0-13.2-10.8-24-24-24zM512 344v80c0 13.2-10.8 24-24 24h-80c-13.2 0-24-10.8-24-24v-80c0-13.2 10.8-24 24-24h80c13.2 0 24 10.8 24 24zM704 344v80c0 13.2-10.8 24-24 24h-80c-13.2 0-24-10.8-24-24v-80c0-13.2 10.8-24 24-24h80c13.2 0 24 10.8 24 24zM512 152v80c0 13.2-10.8 24-24 24h-80c-13.2 0-24-10.8-24-24v-80c0-13.2 10.8-24 24-24h80c13.2 0 24 10.8 24 24zM320 152v80c0 13.2-10.8 24-24 24h-80c-13.2 0-24-10.8-24-24v-80c0-13.2 10.8-24 24-24h80c13.2 0 24 10.8 24 24zM704 152v80c0 13.2-10.8 24-24 24h-80c-13.2 0-24-10.8-24-24v-80c0-13.2 10.8-24 24-24h80c13.2 0 24 10.8 24 24zM896 672v-704c0-53-43-96-96-96h-704c-53 0-96 43-96 96v704c0 53 43 96 96 96h96v104c0 13.2 10.8 24 24 24h80c13.2 0 24-10.8 24-24v-104h256v104c0 13.2 10.8 24 24 24h80c13.2 0 24-10.8 24-24v-104h96c53 0 96-43 96-96zM800-20v596h-704v-596c0-6.6 5.4-12 12-12h680c6.6 0 12 5.4 12 12z" />
<glyph unicode="&#xe909;" glyph-name="like" d="M210 564.294h-180c-16.582 0-30-13.418-30-30v-540c0-16.582 13.418-30 30-30h180c49.628 0 90 40.372 90 90v420c0 49.63-40.372 90-90 90zM150 84.294c-16.568 0-30 13.432-30 30 0 16.572 13.432 30 30 30s30-13.428 30-30c0-16.566-13.432-30-30-30zM1024 414.294c0 49.628-40.372 90-90 90h-226.758c53.144 94.482 66.036 179.736 34.804 238.828-20.040 37.94-57.304 60.586-99.492 60.586-0.234 0-0.468 0-0.762 0-64.688 0-75.586-50.186-84.376-90.556-12.012-55.048-28.3-129.99-142.618-208.858h-54.798v-481.15l19.864-5.56c93.282-26.192 193.726-53.292 293.746-53.292h140.39c49.628 0 90 40.372 90 90 0 11.69-2.226 22.88-6.328 33.164 38.204 10.4 66.328 45.41 66.328 86.836 0 11.69-2.226 22.88-6.328 33.164 38.204 10.4 66.328 45.41 66.328 86.836 0 23.028-8.672 44.062-22.968 60 14.296 15.94 22.968 36.976 22.968 60.002z" />
<glyph unicode="&#xe90a;" glyph-name="calendar1" horiz-adv-x="896" d="M800 768h-96v104c0 13.2-10.8 24-24 24h-80c-13.2 0-24-10.8-24-24v-104h-256v104c0 13.2-10.8 24-24 24h-80c-13.2 0-24-10.8-24-24v-104h-96c-53 0-96-43-96-96v-704c0-53 43-96 96-96h704c53 0 96 43 96 96v704c0 53-43 96-96 96zM788-32h-680c-6.6 0-12 5.4-12 12v596h704v-596c0-6.6-5.4-12-12-12z" />
<glyph unicode="&#xe90b;" glyph-name="folder-open" horiz-adv-x="1152" d="M1055.8 448h-95.8v96c0 53-43 96-96 96h-320l-128 128h-320c-53 0-96-43-96-96v-576c0-53 43-96 96-96h800c33 0 63.8 17 81.4 45.2l159.8 256c40 63.8-6 146.8-81.4 146.8zM96 660c0 6.6 5.4 12 12 12h268.2l128-128h347.8c6.6 0 12-5.4 12-12v-84h-560c-33.6 0-64.8-17.6-82.2-46.4l-125.8-208.4zM896 96h-752l154.4 256h757.6z" />
<glyph unicode="&#xe90c;" glyph-name="folder" d="M928 640h-384l-109.26 109.26c-12 12-28.28 18.74-45.26 18.74h-293.48c-53.020 0-96-42.98-96-96v-576c0-53.020 42.98-96 96-96h832c53.020 0 96 42.98 96 96v448c0 53.020-42.98 96-96 96zM928 96h-832v576h280.24l109.26-109.26c12-12 28.28-18.74 45.26-18.74h397.24v-448z" />
<glyph unicode="&#xe90d;" glyph-name="check-circle-o" d="M917.504 618.496c43.008-72.704 63.488-149.504 63.488-234.496s-20.48-161.792-63.488-234.496c-43.008-72.704-98.304-128-171.008-171.008s-149.504-63.488-234.496-63.488-161.792 20.48-234.496 63.488c-72.704 43.008-128 98.304-171.008 171.008-41.984 72.704-63.488 149.504-63.488 234.496s21.504 161.792 63.488 234.496 98.304 128 171.008 171.008 149.504 63.488 234.496 63.488 161.792-20.48 234.496-63.488 128-98.304 171.008-171.008zM401.408 273.408l-111.616 110.592c-16.384 17.408-46.080 17.408-67.584 0-17.408-17.408-17.408-47.104 0-68.608l144.384-144.384c17.408-17.408 47.104-17.408 64.512 0l366.592 354.304c17.408 16.384 17.408 46.080 0 67.584-16.384 17.408-47.104 17.408-67.584 0l-328.704-319.488z" />
<glyph unicode="&#xe90e;" glyph-name="check" d="M832.512 665.6c25.6 25.6 63.488 25.6 89.088 0s25.6-63.488 0-89.088l-498.688-478.208c-25.6-25.6-64.512-25.6-90.112 0l-230.4 230.4c-25.6 25.6-25.6 63.488 0 89.088s64.512 25.6 90.112 0l187.392-187.392 452.608 435.2z" />
<glyph unicode="&#xe90f;" glyph-name="up-arrow2" d="M748.352 675.228l-208 209.008c-0.012 0.012-0.026 0.022-0.038 0.036-15.636 15.664-41.044 15.614-56.628-0.004-0.012-0.012-0.026-0.022-0.038-0.036l-208-209.008c-15.582-15.658-15.524-40.986 0.136-56.57 15.658-15.584 40.984-15.524 56.568 0.134l139.648 140.328v-847.116c0-22.092 17.908-40 40-40s40 17.908 40 40v847.116l139.648-140.324c15.584-15.658 40.91-15.718 56.568-0.134 15.662 15.586 15.716 40.914 0.136 56.57z" />
<glyph unicode="&#xe910;" glyph-name="left-arrow2" d="M984 424h-847.116l140.328 139.648c15.658 15.584 15.718 40.91 0.134 56.568-15.584 15.66-40.912 15.718-56.57 0.136l-209.008-208c-0.014-0.012-0.024-0.026-0.036-0.038-15.618-15.584-15.668-40.992-0.004-56.628 0.014-0.012 0.024-0.026 0.036-0.038l209.008-208c15.656-15.58 40.984-15.526 56.57 0.136 15.584 15.658 15.524 40.984-0.134 56.568l-140.324 139.648h847.116c22.092 0 40 17.908 40 40s-17.908 40-40 40z" />
<glyph unicode="&#xe911;" glyph-name="right-arrow2" d="M1012.268 412.314c-0.012 0.012-0.022 0.026-0.036 0.038l-209.008 208c-15.658 15.582-40.984 15.524-56.57-0.136-15.584-15.658-15.524-40.984 0.134-56.568l140.328-139.648h-847.116c-22.092 0-40-17.908-40-40s17.908-40 40-40h847.114l-140.324-139.648c-15.658-15.584-15.718-40.91-0.134-56.568 15.586-15.662 40.914-15.716 56.57-0.136l209.008 208c0.012 0.012 0.022 0.026 0.036 0.038 15.666 15.636 15.616 41.044-0.002 56.628z" />
<glyph unicode="&#xe912;" glyph-name="calendar2" d="M984 775.674h-196.978v40.326c0 22.092-17.908 40-40 40s-40-17.908-40-40v-40.326h-390.044v40.326c0 22.092-17.908 40-40 40s-40-17.908-40-40v-40.326h-196.978c-22.092 0-40-17.91-40-40v-783.674c0-22.090 17.908-40 40-40h944c22.092 0 40 17.91 40 40v783.674c0 22.090-17.908 40-40 40zM944-8h-864v703.674h156.978v-40.328c0-22.092 17.908-40 40-40s40 17.908 40 40v40.328h390.042v-40.328c0-22.092 17.908-40 40-40s40 17.908 40 40v40.328h156.98v-703.674zM566 426.1c0-29.823-24.177-54-54-54s-54 24.177-54 54c0 29.823 24.177 54 54 54s54-24.177 54-54zM566 191.080c0-29.823-24.177-54-54-54s-54 24.177-54 54c0 29.823 24.177 54 54 54s54-24.177 54-54zM330.98 426.1c0-29.823-24.177-54-54-54s-54 24.177-54 54c0 29.823 24.177 54 54 54s54-24.177 54-54zM801.020 426.1c0-29.823-24.177-54-54-54s-54 24.177-54 54c0 29.823 24.177 54 54 54s54-24.177 54-54zM330.98 191.080c0-29.823-24.177-54-54-54s-54 24.177-54 54c0 29.823 24.177 54 54 54s54-24.177 54-54zM801.020 191.080c0-29.823-24.177-54-54-54s-54 24.177-54 54c0 29.823 24.177 54 54 54s54-24.177 54-54z" />
<glyph unicode="&#xe913;" glyph-name="folder1" d="M984 652h-446.784l-67.468 141.242c-6.644 13.904-20.684 22.758-36.094 22.758h-393.654c-22.092 0-40-17.908-40-40 0-28.882 0-755.214 0-784 0-22.092 17.908-40 40-40h944c22.092 0 40 17.908 40 40v620c0 22.092-17.908 40-40 40zM80 736h328.432l40.126-84h-368.558v84zM944 32h-864v540c12.354 0 851.646 0 864 0v-540z" />
<glyph unicode="&#xe914;" glyph-name="search2" d="M1015.031-75.778l-248.848 248.848c66.753 76.743 107.168 176.873 107.168 286.311 0 240.901-195.945 436.619-436.619 436.619-240.901 0-436.619-195.945-436.619-436.619s195.945-436.619 436.619-436.619c109.439 0 209.568 40.415 286.311 107.168l248.848-248.848c5.903-5.903 13.85-9.082 21.57-9.082s15.667 2.952 21.57 9.082c11.807 11.807 11.807 31.333 0 43.14zM61.19 459.381c0 207.071 168.472 375.315 375.315 375.315 207.071 0 375.315-168.472 375.315-375.315s-168.245-375.542-375.315-375.542c-206.843 0-375.315 168.472-375.315 375.542z" />
<glyph unicode="&#xe915;" glyph-name="check3" d="M512 896c-282.328 0-512-229.672-512-512s229.672-512 512-512 512 229.672 512 512-229.672 512-512 512zM771.5 492.5l-277.336-277.328c-8.32-8.32-19.242-12.508-30.164-12.508s-21.844 4.188-30.164 12.508l-138.664 138.664c-16.688 16.68-16.688 43.648 0 60.328 16.68 16.688 43.641 16.688 60.328 0l108.5-108.5 247.172 247.164c16.68 16.688 43.641 16.688 60.328 0 16.68-16.68 16.68-43.641 0-60.328z" />
<glyph unicode="&#xe916;" glyph-name="right-quote" d="M227.093 745.414c-125.218 0-227.077-101.859-227.077-227.078 0-120.797 94.797-219.874 213.906-226.718 2.062-22.266 0.515-82.875-57.563-167.187-4.39-6.36-3.594-14.938 1.859-20.39 23.766-23.766 38.454-38.734 48.734-49.203 13.454-13.688 19.595-19.938 28.579-28.094 3.046-2.765 6.89-4.155 10.75-4.155 3.749 0 7.483 1.312 10.499 3.922 101.203 88.062 213.626 270.016 197.36 492.984-9.531 130.906-105.016 225.922-227.048 225.922zM246.437 60.446c-4.358 4.296-9.328 9.358-16.656 16.813-8.906 9.077-21.125 21.515-39.656 40.109 70.485 108.61 57.171 185.968 51.344 197.062-2.766 5.266-8.438 8.813-14.376 8.813-107.562 0-195.077 87.515-195.077 195.093 0 107.563 87.515 195.078 195.077 195.078 104.782 0 186.845-82.531 195.141-196.234 18.281-250.782-130.765-413.61-175.797-456.734zM1022.407 519.492v0.016c-9.563 130.89-105.062 225.906-227.062 225.906-125.219 0-227.094-101.859-227.094-227.078 0-120.797 94.813-219.874 213.938-226.718 2.062-22.25 0.499-82.827-57.594-167.187-4.39-6.36-3.594-14.938 1.859-20.39 23.672-23.672 38.328-38.61 48.61-49.062 13.515-13.781 19.688-20.062 28.718-28.25 3.046-2.75 6.906-4.141 10.75-4.141 3.75 0 7.485 1.312 10.499 3.938 101.203 88.062 213.626 270.014 197.376 492.968zM814.687 60.446c-4.39 4.328-9.405 9.421-16.797 16.952-8.906 9.064-21.077 21.469-39.531 39.97 70.485 108.626 57.189 185.968 51.376 197.062-2.766 5.25-8.453 8.813-14.39 8.813-107.579 0-195.094 87.515-195.094 195.093 0 107.563 87.515 195.078 195.094 195.078 104.765 0 186.843-82.531 195.155-196.25v0.016c18.266-250.75-130.781-413.61-175.813-456.734z" />
<glyph unicode="&#xe917;" glyph-name="down-arrow" d="M748.216 149.344c-15.658 15.584-40.984 15.524-56.568-0.134l-139.648-140.324v847.114c0 22.092-17.908 40-40 40s-40-17.908-40-40v-847.116l-139.648 140.328c-15.584 15.658-40.91 15.718-56.568 0.134-15.66-15.586-15.718-40.912-0.136-56.57l208-209.008c0.012-0.014 0.026-0.024 0.038-0.036 15.584-15.618 40.992-15.668 56.628-0.002 0.012 0.014 0.026 0.024 0.038 0.036l208 209.008c15.58 15.656 15.526 40.984-0.136 56.57z" />
<glyph unicode="&#xe918;" glyph-name="up-arrow" d="M748.352 675.228l-208 209.008c-0.012 0.012-0.026 0.022-0.038 0.036-15.636 15.664-41.044 15.614-56.628-0.004-0.012-0.012-0.026-0.022-0.038-0.036l-208-209.008c-15.582-15.658-15.524-40.986 0.136-56.57 15.658-15.584 40.984-15.524 56.568 0.134l139.648 140.328v-847.116c0-22.092 17.908-40 40-40s40 17.908 40 40v847.116l139.648-140.324c15.584-15.658 40.91-15.718 56.568-0.134 15.662 15.586 15.716 40.914 0.136 56.57z" />
<glyph unicode="&#xe919;" glyph-name="left-arrow" d="M984 424h-847.116l140.328 139.648c15.658 15.584 15.718 40.91 0.134 56.568-15.584 15.66-40.912 15.718-56.57 0.136l-209.008-208c-0.014-0.012-0.024-0.026-0.036-0.038-15.618-15.584-15.668-40.992-0.004-56.628 0.014-0.012 0.024-0.026 0.036-0.038l209.008-208c15.656-15.58 40.984-15.526 56.57 0.136 15.584 15.658 15.524 40.984-0.134 56.568l-140.324 139.648h847.116c22.092 0 40 17.908 40 40s-17.908 40-40 40z" />
<glyph unicode="&#xe91a;" glyph-name="right-arrow" d="M1012.268 412.314c-0.012 0.012-0.022 0.026-0.036 0.038l-209.008 208c-15.658 15.582-40.984 15.524-56.57-0.136-15.584-15.658-15.524-40.984 0.134-56.568l140.328-139.648h-847.116c-22.092 0-40-17.908-40-40s17.908-40 40-40h847.114l-140.324-139.648c-15.658-15.584-15.718-40.91-0.134-56.568 15.586-15.662 40.914-15.716 56.57-0.136l209.008 208c0.012 0.012 0.022 0.026 0.036 0.038 15.666 15.636 15.616 41.044-0.002 56.628z" />
<glyph unicode="&#xe91b;" glyph-name="mail-envelope-closed" d="M170.080 599.235l247.52-215.235-247.581-215.287c-6.206 5.878-10.019 14.235-10.019 23.507v383.562c0 9.253 3.874 17.582 10.080 23.454zM885.981 599.287c6.206-5.878 10.019-14.235 10.019-23.507v-383.562c0-9.252-3.874-17.582-10.080-23.454l-247.52 215.235 247.581 215.287zM614.459 363.181l233.541-203.181h-640l233.541 203.181 86.459-75.181 86.459 75.181zM192.115 640c-35.41 0-64.115-28.624-64.115-63.81v-384.38c0-35.241 28.472-63.81 64.115-63.81h671.77c35.41 0 64.115 28.624 64.115 63.81v384.38c0 35.241-28.472 63.81-64.115 63.81h-671.77zM528 329.6l-320 278.4h640l-320-278.4z" />
<glyph unicode="&#xe922;" glyph-name="telephone-2" d="M628.462 204.416c-27-20.998-65.396-19.196-89.998 5.402l-200.398 200.402c-24.602 24.598-26.4 63.6-5.402 90l-253.8 254.4c-110.402-127.2-104.4-320.402 16.202-441.002l346.798-346.798c122.95-122.95 318.306-124.172 440.998-16.202l-254.4 253.798zM395.664 691.616l-127.2 127.8c-33.6 33.6-93 33.6-127.2 0l-20.998-21.6 254.4-254.4 20.998 21c17.402 17.402 26.4 39.602 26.4 63.6 0 24.002-8.998 46.802-26.4 63.6zM947.666 140.22l-127.802 127.2c-33.6 34.196-93 34.196-127.2 0l-20.998-21.002 254.4-254.4 21.6 20.998c16.802 16.802 25.8 39.602 25.8 63.6 0 24.002-8.998 46.802-25.8 63.604zM513.86 896c-39.546 0-39.708-59.6 0-59.6 248.144 0 450.4-202.256 450.4-450.4 0-39.546 59.6-39.708 59.6 0 0 281.22-228.778 510-510 510zM513.86 776c-39.546 0-39.708-59.6 0-59.6 181.962 0 330.4-148.438 330.4-330.4 0-39.546 59.6-39.708 59.6 0 0 215.040-174.96 390-390 390zM513.86 656c-39.546 0-39.708-59.6 0-59.6 115.782 0 210.4-94.618 210.4-210.4 0-39.546 59.6-39.708 59.6 0 0 148.886-121.114 270-270 270zM513.86 536c-39.546 0-39.708-60 0-60 49.628 0 90-40.372 90-90 0-39.546 60-39.708 60 0 0 82.706-67.294 150-150 150z" />
<glyph unicode="&#xe923;" glyph-name="telephone-1" d="M997.614 140.433l-127.266 127.294c-33.956 33.956-93.282 34.014-127.294 0l-21.222-21.222 254.568-254.554 21.214 21.214c35.238 35.24 35.12 92.208 0 127.268zM678.231 205.261c-26.78-20.746-64.984-19.918-89.454 4.606l-251.634 251.808c-24.526 24.526-25.352 62.758-4.606 89.472l-253.982 253.968c-109.262-127.36-104.99-319.265 15.6-439.855l398.205-398.379c115.72-115.716 305.269-131.064 439.863-15.594l-253.994 253.976zM395.005 743.218l-127.266 127.294c-33.956 33.956-93.282 34.014-127.294 0l-21.222-21.222 254.568-254.554 21.214 21.216c35.236 35.236 35.12 92.204 0 127.266z" />
<glyph unicode="&#xe926;" glyph-name="placeholder" d="M512 656c-66.182 0-120-53.818-120-120 0-66.498 53.722-120 120-120 67.466 0 120 54.51 120 120 0 66.182-53.818 120-120 120zM512 896c-198.516 0-360-161.484-360-360 0-67.060 18.574-132.51 53.702-189.288l285.792-460.518c11.85-19.138 39.79-18.846 51.27 0.41l278.496 464.972c33.162 55.576 50.74 119.356 50.74 184.424 0 198.516-161.484 360-360 360zM512 355.6c-100.69 0-180.4 81.958-180.4 180.4 0 99.258 81.142 180.4 180.4 180.4s180.4-81.142 180.4-180.4c0-97.574-78.638-180.4-180.4-180.4z" />
<glyph unicode="&#xe929;" glyph-name="calendar" d="M480 866.018v-184.018c0-39.654 60-39.816 60 0v184.018c0 40.402-60 39.55-60 0zM180 866.018c0-115.368 0-68.65 0-184.018 0-40.402 60-39.55 60 0 0 115.368 0 68.65 0 184.018 0 40.402-60 39.55-60 0zM784 866.018v-184.018c0-39.654 60-39.816 60 0v184.018c0 40.402-60 39.55-60 0zM360 172h120v-120h-120v120zM180 172h120v-120h-120v120zM540 172h124v-120h-124v120zM180 352h120v-120h-120v120zM360 352h120v-120h-120v120zM0 472v-510c0-49.798 40.198-90 90-90h844c49.802 0 90 40.202 90 90v510h-1024zM904 22c0-16.582-13.418-30-30-30h-724c-16.582 0-30 13.418-30 30v360c0 16.582 13.418 30 30 30h724c16.582 0 30-13.418 30-30v-360zM724 352h120v-120h-120v120zM540 352h124v-120h-124v120zM724 172h120v-120h-120v120zM934 772h-30v-90c0-26.514-10.518-50.42-29.62-67.324-16.406-14.502-37.822-22.47-60.352-22.47-50.478 0-90.028 39.432-90.028 89.794v90h-124v-90c0-26.514-10.518-50.42-29.62-67.324-16.406-14.502-37.822-22.47-60.352-22.47-50.478 0-90.028 39.432-90.028 89.794v90h-120v-90c0-26.542-10.576-50.478-29.766-67.412-16.464-14.56-37.94-22.558-60.468-22.558-50.332 0-89.766 39.52-89.766 89.97v90h-30c-49.802 0-90-40.2-90-90v-150h1024v150c0 49.8-40.198 90-90 90z" />
<glyph unicode="&#xe92f;" glyph-name="email1" d="M934 774h-844c-13.854 0-26.824-3.406-38.558-9.020l458.558-458.558 102.778 98.774c0 0 0.008 0.010 0.010 0.014s0.010 0.008 0.010 0.008l359.774 359.754c-11.736 5.618-24.714 9.028-38.572 9.028zM1014.992 722.544l-338.566-338.548 338.554-338.554c5.614 11.734 9.020 24.704 9.020 38.558v600c0 13.846-3.398 26.814-9.008 38.544zM9.020 722.558c-5.614-11.734-9.020-24.704-9.020-38.558v-600c0-13.846 3.402-26.818 9.012-38.548l338.566 338.548-338.558 338.558zM634.004 341.574l-102.792-98.786c-5.86-5.86-13.536-8.79-21.21-8.79s-15.352 2.93-21.21 8.79l-98.792 98.79-338.572-338.55c11.736-5.618 24.714-9.028 38.572-9.028h844c13.854 0 26.824 3.406 38.558 9.020l-338.554 338.554z" />
<glyph unicode="&#xe930;" glyph-name="pin" d="M512 896c-211.75 0-384-172.27-384-384 0-283.292 354.292-620 369.376-634.208 4.124-3.854 9.374-5.792 14.624-5.792s10.5 1.938 14.626 5.792c15.082 14.208 369.374 350.916 369.374 634.208 0 211.73-172.25 384-384 384zM512 298.666c-117.626 0-213.334 95.708-213.334 213.334s95.71 213.334 213.334 213.334 213.334-95.71 213.334-213.334-95.708-213.334-213.334-213.334z" />
<glyph unicode="&#xe932;" glyph-name="clock2" d="M512 896c-282.328 0-512-229.672-512-512s229.672-512 512-512 512 229.672 512 512-229.672 512-512 512zM755.5 119.172c-8.32-8.32-19.242-12.508-30.164-12.508s-21.852 4.188-30.164 12.508l-213.336 213.328c-8.023 7.977-12.5 18.82-12.5 30.164v277.336c0 23.594 19.109 42.664 42.664 42.664s42.664-19.070 42.664-42.664v-259.672l200.836-200.828c16.68-16.688 16.68-43.648 0-60.328z" />
<glyph unicode="&#xe933;" glyph-name="download" d="M935.88 650.783l-423.831-423.933-423.831 423.984c-20.207 20.207-52.894 20.207-73.101 0-20.156-20.207-20.156-52.945 0-73.152l460.358-460.511c20.156-20.207 52.894-20.207 73.050 0l460.358 460.507c20.156 20.207 20.156 52.996 0 73.203-20.105 20.109-52.848 20.109-73.003-0.098z" />
<glyph unicode="&#xe934;" glyph-name="upload" d="M548.521 650.161c-19.899 19.899-53.144 19.899-73.094 0l-460.312-459.134c-20.154-20.154-20.154-52.838 0-72.941 20.154-20.154 52.889-20.154 73.043 0l423.84 422.662 423.789-422.713c20.205-20.154 52.889-20.154 73.094 0 20.154 20.154 20.154 52.838 0 72.941l-460.359 459.185z" />
<glyph unicode="&#xe935;" glyph-name="star1" d="M1021.322 503.236c-6.742 20.735-25.133 35.415-46.805 37.376l-295.599 26.836-116.822 273.505c-8.625 20.094-28.25 33.063-50.095 33.063s-41.477-12.969-50.048-33.063l-116.822-273.505-295.646-26.836c-21.672-2-40.024-16.68-46.805-37.376-6.742-20.735-0.516-43.477 15.875-57.853l223.449-195.933-65.884-290.177c-4.82-21.336 3.461-43.399 21.164-56.196 9.516-6.914 20.696-10.367 31.915-10.367 9.641 0 19.289 2.563 27.907 7.719l254.895 152.409 254.848-152.409c18.696-11.172 42.204-10.149 59.868 2.648 17.703 12.797 25.985 34.86 21.164 56.196l-65.884 290.177 223.449 195.933c16.383 14.375 22.618 37.071 15.875 57.853z" />
<glyph unicode="&#xe936;" glyph-name="menu" d="M972.8 25.602h-921.6c-28.262 0-51.2-22.938-51.2-51.2 0-28.264 22.938-51.202 51.2-51.202h921.6c28.262 0 51.2 22.938 51.2 51.203 0 28.26-22.938 51.198-51.2 51.198zM51.2 742.402h921.6c28.262 0 51.2 22.936 51.2 51.2s-22.938 51.2-51.2 51.2h-921.6c-28.262-0.002-51.2-22.938-51.2-51.202 0-28.262 22.938-51.198 51.2-51.198zM972.8 435.202h-921.6c-28.262 0-51.2-22.938-51.2-51.202s22.938-51.2 51.2-51.2h921.6c28.262 0 51.2 22.938 51.2 51.2s-22.938 51.202-51.2 51.202z" />
<glyph unicode="&#xe937;" glyph-name="magnifying-glass" d="M1015.031-75.778l-248.848 248.848c66.753 76.743 107.168 176.873 107.168 286.311 0 240.901-195.945 436.619-436.619 436.619-240.901 0-436.619-195.945-436.619-436.619s195.945-436.619 436.619-436.619c109.439 0 209.568 40.415 286.311 107.168l248.848-248.848c5.903-5.903 13.85-9.082 21.57-9.082s15.667 2.952 21.57 9.082c11.807 11.807 11.807 31.333 0 43.14zM61.19 459.381c0 207.071 168.472 375.315 375.315 375.315 207.071 0 375.315-168.472 375.315-375.315s-168.245-375.542-375.315-375.542c-206.843 0-375.315 168.472-375.315 375.542z" />
<glyph unicode="&#xe938;" glyph-name="shopping-cart1" d="M307.407 221.773h564.225c63.978 0 116.17 52.192 116.17 116.17v237.391c0 0.21 0 0.631 0 0.842 0 0.631 0 1.052 0 1.684 0 0.421 0 0.842-0.21 1.263 0 0.421-0.21 1.052-0.21 1.473s-0.21 0.842-0.21 1.263c-0.21 0.421-0.21 0.842-0.421 1.473-0.21 0.421-0.21 0.842-0.421 1.263s-0.21 0.842-0.421 1.263c-0.21 0.421-0.421 0.842-0.631 1.473-0.21 0.421-0.421 0.842-0.631 1.052-0.21 0.421-0.421 0.842-0.631 1.263s-0.421 0.631-0.631 1.052c-0.21 0.421-0.631 0.842-0.842 1.263s-0.421 0.631-0.842 1.052c-0.21 0.421-0.631 0.631-0.842 1.052s-0.631 0.631-0.842 1.052-0.631 0.631-0.842 0.842c-0.421 0.421-0.631 0.631-1.052 1.052-0.421 0.21-0.631 0.631-1.052 0.842s-0.842 0.631-1.263 0.842c-0.421 0.21-0.631 0.421-1.052 0.631s-0.842 0.421-1.263 0.842c-0.421 0.21-0.842 0.421-1.263 0.631s-0.842 0.421-1.263 0.631-0.842 0.421-1.263 0.631-0.842 0.21-1.263 0.421c-0.421 0.21-1.052 0.421-1.473 0.421s-0.842 0.21-1.052 0.21-1.052 0.21-1.684 0.21c-0.21 0-0.421 0.21-0.842 0.21l-715.12 98.703v99.755c0 1.052 0 2.105-0.21 2.946 0 0.21 0 0.421-0.21 0.842 0 0.631-0.21 1.263-0.21 1.894-0.21 0.631-0.21 1.052-0.421 1.684 0 0.421-0.21 0.631-0.21 1.052-0.21 0.631-0.421 1.263-0.631 1.894 0 0.21-0.21 0.631-0.21 0.842-0.21 0.631-0.421 1.052-0.842 1.684-0.21 0.21-0.21 0.631-0.421 0.842-0.21 0.421-0.421 0.842-0.842 1.263-0.21 0.421-0.421 0.631-0.631 1.052s-0.421 0.631-0.631 1.052-0.631 0.842-0.842 1.263c-0.21 0.21-0.421 0.421-0.631 0.631-0.421 0.421-0.842 0.842-1.263 1.263-0.21 0.21-0.421 0.421-0.631 0.631-0.421 0.421-0.842 0.842-1.473 1.263-0.21 0.21-0.631 0.421-0.842 0.631-0.421 0.421-0.842 0.631-1.263 1.052-0.631 0.421-1.263 0.842-1.684 1.052-0.21 0.21-0.421 0.21-0.631 0.421-0.842 0.421-1.894 0.842-2.736 1.263l-155.104 65.24c-14.521 6.103-31.147-0.631-37.25-15.153s0.631-31.147 15.153-37.25l137.636-58.085v-622.521c0-58.927 44.195-107.752 101.228-115.118-10.312-17.257-16.415-37.461-16.415-58.927 0-63.346 51.561-114.697 114.697-114.697s114.697 51.561 114.697 114.697c0 21.045-5.682 41.038-15.784 57.875h255.49c-10.102-17.047-15.784-36.829-15.784-57.875 0-63.346 51.561-114.697 114.697-114.697s114.697 51.561 114.697 114.697-51.561 114.697-114.697 114.697h-536.656c-32.831 0-59.348 26.728-59.348 59.348v77.026c17.257-10.102 37.671-15.994 59.348-15.994zM448.831-13.093c0-31.989-26.096-57.875-57.875-57.875s-57.875 26.096-57.875 57.875 26.096 57.875 57.875 57.875 57.875-25.886 57.875-57.875zM902.148-13.093c0-31.989-26.096-57.875-57.875-57.875s-57.875 26.096-57.875 57.875 26.096 57.875 57.875 57.875 57.875-25.886 57.875-57.875zM871.632 278.596h-564.225c-32.831 0-59.348 26.728-59.348 59.348v307.051l682.921-94.073v-212.768c0-33.041-26.728-59.558-59.348-59.558z" />
<glyph unicode="&#xe939;" glyph-name="close" d="M52.912-128.003c-13.489 0-26.977 5.131-37.225 15.456-20.574 20.574-20.574 53.929 0 74.502l918.614 918.614c20.574 20.574 53.929 20.574 74.502 0s20.574-53.929 0-74.515l-918.601-918.601c-10.325-10.261-23.814-15.456-37.29-15.456zM971.59-128.003c-13.489 0-26.964 5.131-37.225 15.456l-918.678 918.601c-20.574 20.587-20.574 53.942 0 74.515s53.929 20.574 74.515 0l918.601-918.614c20.574-20.574 20.574-53.929 0-74.502-10.325-10.261-23.801-15.456-37.213-15.456z" />
<glyph unicode="&#xe93a;" glyph-name="phone-call" d="M719.374 78.198l-95.034 95.034c-27.418 27.418-72.036 27.416-99.45 0l-41.752-41.752c-95.36 49.936-173.724 128.3-223.66 223.66l41.754 41.754c27.416 27.418 27.416 72.032 0 99.45l-95.032 95.032c-27.418 27.418-72.032 27.418-99.45 0l-76.026-76.028c-39.724-39.722-40.966-109.748-3.498-197.174 33.776-78.812 95.768-165.606 174.554-244.392s165.58-140.778 244.392-174.554c42.374-18.16 80.656-27.226 113.384-27.226 34.798 0 63.32 10.252 83.79 30.722l76.026 76.026c13.284 13.282 20.598 30.942 20.598 49.726 0.002 18.78-7.314 36.44-20.596 49.722zM676.94 21.18l-76.026-76.026c-20.584-20.582-69.592-17.136-131.106 9.226-71.962 30.842-152.082 88.314-225.6 161.832-73.516 73.518-130.99 153.636-161.832 225.598-26.36 61.51-29.812 110.522-9.226 131.106l76.026 76.026c4.024 4.022 10.568 4.022 14.59 0l95.032-95.032c4.022-4.022 4.022-10.568 0-14.588l-71.97-71.972 9.052-19.108c58.112-122.68 157.68-222.25 280.362-280.362l19.108-9.050 71.97 71.97c2.628 2.628 5.7 3.022 7.294 3.022s4.664-0.392 7.292-3.020l95.032-95.032c2.628-2.628 3.022-5.698 3.022-7.294 0.004-1.598-0.392-4.668-3.020-7.296zM931.502 818.476c-58.324 49.992-135.58 77.524-217.536 77.524-81.954 0-159.212-27.532-217.536-77.524-59.646-51.126-92.496-119.492-92.496-192.504s32.85-141.376 92.496-192.504c10.69-9.16 22.018-17.562 33.892-25.182-21.924-33.034-47.554-63.396-76.382-90.406 62.88 5.2 122.502 21.864 176.808 47.854 26.772-6.448 54.71-9.79 83.218-9.79 81.956 0 159.212 27.532 217.536 77.524 59.648 51.124 92.498 119.492 92.498 192.504s-32.85 141.376-92.498 192.504zM713.966 415.95c-137.864 0-250.026 94.216-250.026 210.022s112.162 210.022 250.026 210.022 250.026-94.216 250.026-210.022c0.002-115.806-112.162-210.022-250.026-210.022zM753.978 625.972c0-22.094-17.91-40.004-40.004-40.004s-40.004 17.91-40.004 40.004c0 22.094 17.91 40.004 40.004 40.004s40.004-17.91 40.004-40.004zM613.964 625.972c0-22.094-17.91-40.004-40.004-40.004s-40.004 17.91-40.004 40.004c0 22.094 17.91 40.004 40.004 40.004s40.004-17.91 40.004-40.004zM893.994 625.972c0-22.094-17.91-40.004-40.004-40.004s-40.004 17.91-40.004 40.004c0 22.094 17.91 40.004 40.004 40.004s40.004-17.91 40.004-40.004z" />
<glyph unicode="&#xe93b;" glyph-name="quote" d="M0 384v-438.858h438.858v438.858h-292.571c0 161.321 131.251 292.571 292.571 292.571v146.287c-242.001 0-438.858-196.857-438.858-438.858zM1024 676.571v146.287c-242.001 0-438.858-196.857-438.858-438.858v-438.858h438.858v438.858h-292.571c0 161.321 131.251 292.571 292.571 292.571z" />
<glyph unicode="&#xe93c;" glyph-name="check2" d="M511.999 896c-282.769 0-511.999-229.23-511.999-511.999s229.23-511.999 511.999-511.999 511.999 229.23 511.999 511.999c-0.3 282.643-229.354 511.697-511.999 511.999zM793.855 541.002l-365.715-365.715c-14.282-14.278-37.431-14.278-51.711 0l-146.286 146.286c-14.529 14.031-14.931 37.183-0.9 51.711s37.183 14.931 51.711 0.9c0.304-0.296 0.604-0.594 0.9-0.9l120.431-120.431 339.859 339.859c14.529 14.031 37.68 13.629 51.711-0.898 13.689-14.173 13.689-36.641 0-50.814z" />
<glyph unicode="&#xe93d;" glyph-name="play-button" d="M73.143 896l877.714-512-877.714-512z" />
<glyph unicode="&#xe93e;" glyph-name="left-arrow1" d="M966.44 464.301l1.598-0.35h-685.214l215.406 215.881c10.548 10.54 16.334 24.817 16.334 39.803s-5.786 29.163-16.334 39.728l-33.517 33.534c-10.54 10.54-24.584 16.367-39.561 16.367-14.985 0-29.038-5.786-39.578-16.326l-369.248-369.214c-10.581-10.581-16.367-24.676-16.326-39.67-0.042-15.077 5.744-29.18 16.326-39.745l369.248-369.248c10.54-10.531 24.584-16.326 39.578-16.326 14.977 0 29.022 5.803 39.561 16.326l33.517 33.534c10.548 10.523 16.334 24.576 16.334 39.561 0 14.977-5.786 28.289-16.334 38.82l-217.837 217.088h686.813c30.862 0 56.795 26.599 56.795 57.444v47.429c0 30.845-26.699 55.363-57.56 55.363z" />
<glyph unicode="&#xe93f;" glyph-name="right-arrow1" d="M1007.633 423.786l-369.803 369.811c-10.556 10.556-24.626 16.351-39.628 16.351-15.019 0-29.080-5.803-39.636-16.351l-33.575-33.584c-10.548-10.54-16.359-24.617-16.359-39.628 0-15.002 5.811-29.554 16.359-40.094l215.738-216.212h-685.408c-30.903 0-55.321-24.193-55.321-55.104v-47.478c0-30.911 24.418-57.543 55.321-57.543h687.856l-218.177-217.419c-10.548-10.556-16.359-24.251-16.359-39.261 0-14.994 5.811-28.888 16.359-39.436l33.575-33.475c10.556-10.556 24.617-16.309 39.636-16.309 15.002 0 29.071 5.828 39.628 16.384l369.803 369.803c10.581 10.59 16.401 24.726 16.359 39.753 0.033 15.077-5.778 29.221-16.367 39.794z" />
<glyph unicode="&#xe940;" glyph-name="down-arrow1" d="M921.325 337.096l-33.542 33.551c-10.531 10.548-24.609 16.384-39.595 16.384-15.002 0-30.354-5.836-40.885-16.384l-216.863-215.573v684.889c0 30.887-22.545 56.037-53.423 56.037h-47.462c-30.87 0-59.117-25.15-59.117-56.037v-687.329l-216.43 218.012c-10.548 10.548-23.818 16.384-38.82 16.384-14.985 0-28.672-5.836-39.212-16.384l-33.359-33.551c-21.829-21.837-21.737-57.361 0.092-79.198l369.589-369.547c10.523-10.523 24.643-16.351 39.753-16.351h0.158c14.994 0 29.080 5.828 39.603 16.351l369.514 369.539c21.845 21.829 21.845 57.369 0 79.206z" />
<glyph unicode="&#xe941;" glyph-name="up-arrow1" d="M921.24 510.152l-369.522 369.522c-10.54 10.54-24.601 16.326-39.894 16.326-14.994 0-29.047-5.786-39.586-16.326l-369.531-369.522c-21.829-21.837-21.829-57.377 0-79.198l33.551-33.567c10.54-10.531 24.601-16.326 39.603-16.326 14.994 0 29.538 5.794 40.069 16.326l216.056 215.589v-684.923c0-30.87 24.176-56.054 55.046-56.054h47.454c30.87 0 57.494 25.184 57.494 56.054v687.354l217.279-218.020c10.531-10.531 24.218-16.326 39.22-16.326s28.855 5.794 39.403 16.326l33.451 33.567c21.837 21.829 21.754 57.361-0.092 79.198z" />
<glyph unicode="&#xe947;" glyph-name="location" d="M512 896c-176.732 0-320-143.268-320-320 0-320 320-704 320-704s320 384 320 704c0 176.732-143.27 320-320 320zM512 384c-106.040 0-192 85.96-192 192s85.96 192 192 192 192-85.96 192-192-85.96-192-192-192z" />
<glyph unicode="&#xe948;" glyph-name="location2" d="M512 896c-176.732 0-320-143.268-320-320 0-320 320-704 320-704s320 384 320 704c0 176.732-143.27 320-320 320zM512 380c-108.248 0-196 87.752-196 196s87.752 196 196 196 196-87.752 196-196-87.752-196-196-196zM388 576c0 68.483 55.517 124 124 124s124-55.517 124-124c0-68.483-55.517-124-124-124s-124 55.517-124 124z" />
<glyph unicode="&#xe94a;" glyph-name="search-bold" d="M669.696 145.408c-63.488-47.104-140.288-72.704-221.184-72.704-209.92 0-375.808 165.888-375.808 375.808s165.888 374.784 375.808 374.784 374.784-165.888 374.784-374.784c0-86.016-25.6-162.816-72.704-222.208l166.912-166.912c21.504-20.48 21.504-55.296 0-76.8s-55.296-21.504-76.8 0l-171.008 162.816zM448.512 183.296c144.384 0 264.192 119.808 264.192 265.216s-119.808 264.192-264.192 264.192-265.216-119.808-265.216-264.192 119.808-265.216 265.216-265.216z" />
<glyph unicode="&#xe94b;" glyph-name="map-pin" d="M106.496 448.512c0 223.232 181.248 404.48 405.504 404.48s405.504-181.248 405.504-404.48c0-132.096-109.568-279.552-328.704-441.344-37.888-63.488-63.488-95.232-76.8-95.232s-37.888 31.744-76.8 95.232c-219.136 161.792-328.704 309.248-328.704 441.344zM512 320.512c70.656 0 128 56.32 128 128s-57.344 128-128 128-128-57.344-128-128 57.344-128 128-128z" />
<glyph unicode="&#xe94c;" glyph-name="arrow-pointing-to-up" d="M850.394 577.337l-304.726 304.718c-18.592 18.592-48.745 18.592-67.337 0l-304.726-304.726c-18.6-18.596-18.6-48.741 0-67.337 9.29-9.294 21.483-13.945 33.668-13.945s24.367 4.651 33.668 13.945l223.444 223.444v-813.823c0-26.294 21.319-47.613 47.613-47.613 26.286 0 47.613 21.319 47.613 47.613v813.827l223.444-223.436c18.6-18.592 48.745-18.592 67.337 0 18.596 18.592 18.596 48.737 0 67.333z" />
<glyph unicode="&#xe94d;" glyph-name="arrow-pointing-to-down" d="M850.394 258.007c-18.592 18.596-48.745 18.596-67.337 0l-223.444-223.444v813.823c0 26.294-21.323 47.613-47.613 47.613-26.298 0-47.613-21.319-47.613-47.613v-813.823l-223.444 223.436c-18.6 18.592-48.745 18.592-67.337 0-18.6-18.596-18.6-48.741 0-67.337l304.726-304.718c9.29-9.294 21.483-13.945 33.668-13.945s24.367 4.651 33.668 13.945l304.726 304.726c18.596 18.596 18.596 48.741 0 67.337z" />
<glyph unicode="&#xe94e;" glyph-name="arrow-pointing-to-left" d="M976.387 431.615h-813.82l223.435 223.443c18.596 18.596 18.596 48.741 0 67.336-18.6 18.592-48.744 18.592-67.336 0l-304.717-304.724c-18.6-18.596-18.6-48.741 0-67.336l304.724-304.724c9.29-9.29 21.483-13.945 33.668-13.945s24.367 4.655 33.668 13.945c18.596 18.596 18.596 48.741 0 67.336l-223.443 223.443h813.82c26.294 0 47.613 21.323 47.613 47.613 0 26.294-21.319 47.613-47.613 47.613z" />
<glyph unicode="&#xe94f;" glyph-name="arrow-pointing-to-right" d="M1010.055 417.668l-304.726 304.726c-18.592 18.592-48.745 18.592-67.337 0-18.596-18.596-18.596-48.741 0-67.337l223.444-223.444h-813.823c-26.294 0-47.613-21.319-47.613-47.613 0-26.29 21.319-47.613 47.613-47.613h813.823l-223.436-223.444c-18.596-18.596-18.596-48.741 0-67.337 9.294-9.29 21.483-13.945 33.668-13.945s24.37 4.655 33.668 13.945l304.718 304.726c18.596 18.596 18.596 48.741 0 67.337z" />
<glyph unicode="&#xe950;" glyph-name="down-arrow3" d="M512 768c-17.664 0-32-14.336-32-32v-638.384l-232.832 244.448c-12.176 12.784-32.416 13.312-45.248 1.104-12.8-12.192-13.296-32.432-1.104-45.232l265.92-279.184c12.096-12.096 28.16-18.752 45.264-18.752 17.088 0 33.168 6.656 45.792 19.312l265.376 278.624c12.192 12.8 11.68 33.040-1.104 45.232-12.784 12.208-33.040 11.696-45.232-1.104l-232.832-245.472v639.408c0 17.664-14.336 32-32 32z" />
<glyph unicode="&#xe951;" glyph-name="up-arrow3" d="M512 0c17.664 0 32 14.336 32 32v638.384l232.832-244.448c6.288-6.608 14.72-9.936 23.168-9.936 7.92 0 15.872 2.928 22.064 8.832 12.8 12.192 13.296 32.448 1.104 45.248l-265.904 279.168c-12.096 12.080-28.16 18.752-45.264 18.752s-33.168-6.672-45.792-19.312l-265.376-278.624c-12.192-12.8-11.696-33.056 1.104-45.248s33.072-11.696 45.248 1.104l232.816 245.472v-639.392c0-17.664 14.336-32 32-32z" />
<glyph unicode="&#xe952;" glyph-name="left-arrow3" d="M864 416h-638.384l244.448 232.832c12.8 12.192 13.296 32.448 1.104 45.248-12.176 12.784-32.432 13.296-45.248 1.104l-279.168-265.92c-12.080-12.096-18.752-28.16-18.752-45.264 0-17.088 6.672-33.168 19.312-45.792l278.624-265.376c6.192-5.904 14.128-8.832 22.064-8.832 8.448 0 16.896 3.328 23.184 9.936 12.192 12.8 11.696 33.040-1.104 45.232l-245.472 232.832h639.392c17.664 0 32 14.336 32 32s-14.336 32-32 32z" />
<glyph unicode="&#xe953;" glyph-name="right-arrow3" d="M598.064 695.168c-12.784 12.176-33.056 11.696-45.232-1.104-12.192-12.8-11.68-33.056 1.104-45.248l245.472-232.816h-639.408c-17.664 0-32-14.336-32-32s14.336-32 32-32h638.384l-244.448-232.832c-12.8-12.192-13.296-32.448-1.104-45.248 6.288-6.592 14.72-9.92 23.168-9.92 7.936 0 15.872 2.928 22.064 8.832l279.184 265.92c12.096 12.080 18.752 28.144 18.752 45.248s-6.656 33.168-19.312 45.792z" />
<glyph unicode="&#xe954;" glyph-name="map" d="M0 704l320 128v-768l-320-128zM384 864l320-192v-736l-320 160zM768 672l256 192v-768l-256-192z" />
<glyph unicode="&#xe955;" glyph-name="map2" d="M672 704l-320 128-352-128v-768l352 128 320-128 352 128v768l-352-128zM384 750.27l256-102.4v-630.138l-256 102.398v630.14zM64 659.172l256 93.090v-631.8l-256-93.088v631.798zM960 108.828l-256-93.092v631.8l256 93.090v-631.798z" />
<glyph unicode="&#xe96d;" glyph-name="bubbles2" horiz-adv-x="1152" d="M480 896v0c265.096 0 480-173.914 480-388.448s-214.904-388.448-480-388.448c-25.458 0-50.446 1.62-74.834 4.71-103.106-102.694-222.172-121.108-341.166-123.814v25.134c64.252 31.354 116 88.466 116 153.734 0 9.106-0.712 18.048-2.030 26.794-108.558 71.214-177.97 179.988-177.97 301.89 0 214.534 214.904 388.448 480 388.448zM996 25.314c0-55.942 36.314-104.898 92-131.772v-21.542c-103.126 2.318-197.786 18.102-287.142 106.126-21.14-2.65-42.794-4.040-64.858-4.040-95.47 0-183.408 25.758-253.614 69.040 144.674 0.506 281.26 46.854 384.834 130.672 52.208 42.252 93.394 91.826 122.414 147.348 30.766 58.866 46.366 121.582 46.366 186.406 0 10.448-0.45 20.836-1.258 31.168 72.57-59.934 117.258-141.622 117.258-231.676 0-104.488-60.158-197.722-154.24-258.764-1.142-7.496-1.76-15.16-1.76-22.966z" />
<glyph unicode="&#xe970;" glyph-name="bubbles4" horiz-adv-x="1152" d="M480 768c-50.666 0-99.582-7.95-145.386-23.628-42.924-14.694-81.114-35.436-113.502-61.646-60.044-48.59-93.112-110.802-93.112-175.174 0-35.99 10.066-70.948 29.92-103.898 20.686-34.34 51.898-65.794 90.26-90.958 30.44-19.968 50.936-51.952 56.362-87.95 0.902-5.99 1.63-12.006 2.18-18.032 2.722 2.52 5.424 5.114 8.114 7.794 24.138 24.040 56.688 37.312 90.322 37.312 5.348 0 10.718-0.336 16.094-1.018 19.36-2.452 39.124-3.696 58.748-3.696 50.666 0 99.58 7.948 145.384 23.628 42.926 14.692 81.116 35.434 113.504 61.644 60.046 48.59 93.112 110.802 93.112 175.174s-33.066 126.582-93.112 175.174c-32.388 26.212-70.578 46.952-113.504 61.646-45.804 15.678-94.718 23.628-145.384 23.628zM480 896v0c265.096 0 480-173.914 480-388.448s-214.904-388.448-480-388.448c-25.458 0-50.446 1.62-74.834 4.71-103.106-102.694-222.172-121.108-341.166-123.814v25.134c64.252 31.354 116 88.466 116 153.734 0 9.106-0.712 18.048-2.030 26.794-108.558 71.214-177.97 179.988-177.97 301.89 0 214.534 214.904 388.448 480 388.448zM996 25.314c0-55.942 36.314-104.898 92-131.772v-21.542c-103.126 2.318-197.786 18.102-287.142 106.126-21.14-2.65-42.794-4.040-64.858-4.040-95.47 0-183.408 25.758-253.614 69.040 144.674 0.506 281.26 46.854 384.834 130.672 52.208 42.252 93.394 91.826 122.414 147.348 30.766 58.866 46.366 121.582 46.366 186.406 0 10.448-0.45 20.836-1.258 31.168 72.57-59.934 117.258-141.622 117.258-231.676 0-104.488-60.158-197.722-154.24-258.764-1.142-7.496-1.76-15.16-1.76-22.966z" />
<glyph unicode="&#xe976;" glyph-name="single-page" d="M917.504 832.512c55.296 0 102.4-38.912 106.496-89.088v-711.68c0-51.2-44.032-92.16-99.328-95.232l-7.168-1.024h-811.008c-55.296 0-102.4 38.912-106.496 89.088v711.68c0 51.2 44.032 92.16 99.328 95.232l7.168 1.024h811.008zM917.504 789.504h-811.008c-33.792 0-60.416-21.504-63.488-48.128v-709.632c0-26.624 24.576-50.176 57.344-52.224l6.144-1.024h811.008c33.792 0 60.416 21.504 63.488 48.128v709.632c0 26.624-24.576 50.176-57.344 52.224l-6.144 1.024zM497.664 234.496c8.192 0 14.336-6.144 14.336-14.336v-184.32c0-8.192-6.144-14.336-14.336-14.336h-398.336c-7.168 0-14.336 6.144-14.336 14.336v184.32c0 8.192 7.168 14.336 14.336 14.336h398.336zM917.504 64.512c12.288 0 21.504-10.24 21.504-21.504s-8.192-19.456-17.408-21.504h-345.088c-12.288 0-21.504 9.216-21.504 21.504 0 10.24 7.168 18.432 17.408 20.48l4.096 1.024h340.992zM468.992 192.512h-340.992v-128h340.992v128zM917.504 149.504c12.288 0 21.504-9.216 21.504-21.504 0-10.24-8.192-19.456-17.408-20.48l-4.096-1.024h-340.992c-12.288 0-21.504 9.216-21.504 21.504 0 10.24 7.168 19.456 17.408 20.48l4.096 1.024h340.992zM917.504 234.496c12.288 0 21.504-9.216 21.504-21.504 0-10.24-8.192-18.432-17.408-20.48h-345.088c-12.288 0-21.504 9.216-21.504 20.48s7.168 19.456 17.408 21.504h345.088zM924.672 746.496c7.168 0 14.336-6.144 14.336-14.336v-440.32c0-8.192-7.168-14.336-14.336-14.336h-825.344c-7.168 0-14.336 6.144-14.336 14.336v440.32c0 8.192 7.168 14.336 14.336 14.336h825.344zM660.48 566.272l-168.96-174.080c-6.144-5.12-14.336-8.192-22.528-5.12l-3.072 2.048-125.952 73.728-156.672-142.336h687.104l-209.92 245.76zM896 704.512h-768v-376.832l194.56 177.152c6.144 5.12 14.336 7.168 21.504 4.096l4.096-2.048 124.928-72.704 174.080 178.176c7.168 8.192 19.456 8.192 28.672 2.048l3.072-3.072 217.088-254.976v348.16zM256 661.504c35.84 0 64.512-28.672 64.512-64.512s-28.672-63.488-64.512-63.488-63.488 28.672-63.488 63.488 27.648 64.512 63.488 64.512zM256 618.496c-12.288 0-21.504-9.216-21.504-21.504s9.216-20.48 21.504-20.48 21.504 9.216 21.504 20.48-9.216 21.504-21.504 21.504z" />
<glyph unicode="&#xea9e;" glyph-name="youtube2" horiz-adv-x="2569" d="M344.012 726.601c0.209 0.865 0.344 1.479 0.388 1.8l1.042 7.559-47.349 0.267c-42.779 0.242-55.87-0.007-57.047-1.084-0.565-0.516-15.333-56.633-41.655-158.273-12.556-48.484-23.124-87.206-23.487-86.051s-15.391 56.498-33.397 122.98c-18.006 66.482-33.104 121.243-33.55 121.692-0.623 0.623-57.98 0.9-104.417 0.502-6.735-0.056-10.477 13.11 60.021-211.133 9.759-31.041 24.371-74.997 32.469-97.679 9.333-26.141 15.989-46.323 20.534-63.173 8.038-32.067 8.319-52.163 6.565-75.625-2.026-27.101-2.321-218.438-0.342-221.638 1.512-2.449 91.223-3.589 99.712-1.268 1.358 0.372 2.265 1.691 2.87 8.928 2.119 6.219 2.286 30.969 2.286 133.744v131.281l5.742 18.112c3.756 11.849 13.201 42.995 20.989 69.22 7.789 26.222 17.21 57.619 20.938 69.771 33.834 110.319 66.14 218.831 66.994 225.011l0.693 5.056zM846.122 567.349l-0.021-6.838-1.065-0.014-0.595-188.993-0.577-183.227-14.666-14.929c-16.424-16.719-29.585-23.101-41.488-20.113-12.963 3.254-12.64-1.8-13.722 214.768l-0.998 199.347h-94.316v-6.851h-1.086v-216.289c0-231.737-0.007-231.599 11.752-254.875 9.366-18.536 23.010-27.559 46.391-30.671h0.002c30.79-4.1 64.001 9.849 94.77 39.809l13.373 13.022v-22.445c0-19.396 0.554-22.601 4.070-23.58 5.756-1.605 77.173-1.707 84.89-0.126l6.396 1.314v6.628l1.086 0.223v495.098l-94.195-1.258zM606.892 469.67c-8.935 38.341-25.68 64.115-53.233 81.939-43.281 27.999-92.718 30.957-138.586 8.291-33.425-16.515-54.951-43.914-66.071-84.083-1.326-4.786-2.298-8.812-3.033-14.815-2.83-14.184-3.163-35.351-3.889-133.951-1.121-151.928 0.616-170.003 19.643-204.51 18.664-33.848 57.403-58.661 99.572-63.782 12.696-1.54 38.43 0.858 53.23 4.961 33.632 9.326 65.864 35.906 80.118 66.078 6.158 13.033 9.875 22.096 12.115 38.651 4.175 22.617 4.47 59.175 4.47 152.375-0.002 118.875-0.379 131.862-4.337 148.847zM499.34 159.997c-7.907-6.028-21.734-8.649-32.983-6.249-8.656 1.847-20.338 15.419-23.934 27.801-4.479 15.436-4.823 229.985-0.954 272.059 6.379 21.054 24.19 32.050 43.635 26.813 15.157-4.082 22.915-13.575 27.336-33.457 3.282-14.754 3.67-33.129 2.972-141.26-0.46-71.701-0.716-106.742-3.058-125.553-2.382-11.87-6.319-15.047-13.015-20.154zM2300.389 361.863h45.57l-0.726 41.281c-0.705 37.869-1.263 42.2-6.324 52.472-7.982 16.21-19.759 23.401-38.446 23.401-22.448 0-36.678-10.849-43.388-33.141-2.858-9.486-5.863-74.685-3.707-80.308 1.205-3.144 7.724-3.705 47.021-3.705zM1995.795 455.763c-6.077 12.247-17.385 18.278-30.525 17.806-10.221-0.365-21.561-4.677-32.488-13.010l-8.14-6.177v-296.598l8.14-6.177c18.429-14.052 38.674-17.031 52.619-7.703 5.519 3.691 9.117 8.779 11.919 16.861 3.647 10.524 3.965 24.003 3.489 148.772-0.495 130.043-0.781 137.702-5.014 146.226zM2560.878 589.367c-9.080 108.842-16.303 144.165-38.751 189.544-29.729 60.101-72.692 91.788-133.876 98.747-47.309 5.379-225.315 12.97-390.044 16.631-285.188 6.338-754.057-5.858-813.939-21.173-27.673-7.077-48.426-19.11-70.022-40.604-37.844-37.662-60.391-91.679-69.452-166.396-20.692-170.606-21.134-376.727-1.188-553.515 8.577-76.041 26.243-125.443 59.41-166.159 20.694-25.406 56.352-46.998 88.26-53.442 22.385-4.523 134.42-10.798 297.605-16.668 24.306-0.874 88.667-2.379 143.030-3.344 113.301-2.012 321.627-0.821 440.719 2.519 80.127 2.249 226.201 8.172 253.5 10.282 7.677 0.593 25.469 1.728 39.537 2.523 47.277 2.67 77.353 12.568 105.596 34.76 36.553 28.718 64.857 81.795 76.815 144.037 11.314 58.894 18.887 163.773 20.422 282.851 1.284 99.491-0.426 153.175-7.621 239.409zM1425.273 628.808l-52.982-0.654-2.326-565.143-45.932-0.581c-35.525-0.488-46.307 0.044-47.167 2.326-0.616 1.626-1.356 129.020-1.672 283.153l-0.581 280.246-103.493 1.307v88.304l305.829-1.235 1.307-87.069-52.982-0.654zM1750.216 304.883v-243.035h-83.725v25.583c0 19.247-0.735 25.583-2.979 25.583-1.64 0-9.226-6.344-16.861-14.098-16.557-16.817-36.171-30.367-52.91-36.63-34.662-12.968-67.589-5.4-81.618 18.75-12.838 22.11-13.082 27.052-13.082 256.335v210.547h83.653l0.654-198.265c0.623-194.821 0.714-198.393 5.377-206.333 6.182-10.521 15.608-13.347 30.597-9.231 8.817 2.423 14.836 6.707 29.143 20.931l18.024 17.952v374.946h83.725v-243.035zM2076.757 96.59c-7.372-16.424-23.806-32.509-37.283-36.485-35.167-10.382-63.375-1.923-95.935 28.708-10.103 9.505-19.51 17.224-20.931 17.224-1.712 0-2.616-7.449-2.616-22.094v-22.094h-83.725v655.845h83.725v-106.982c0-58.84 0.786-106.982 1.744-106.982s9.789 7.807 19.624 17.298c22.629 21.841 41.548 31.399 65.557 33.213 42.811 3.24 68.327-18.794 80.018-69.117 3.647-15.696 3.998-33.625 3.998-179.078-0.002-177.178-0.021-177.918-14.175-209.457zM2430.99 193.832c-0.744-18.226-2.954-39.137-4.942-46.514-11.642-43.167-42.635-73.731-87.432-86.269-60.315-16.878-126.704 10.777-153.205 63.812-14.875 29.769-15.408 35.706-15.408 181.185 0 118.617 0.419 133.171 4.214 149.354 10.747 45.788 37.392 75.422 82.49 91.865 13.068 4.765 26.708 7.207 40.337 7.486 48.672 0.998 96.984-25.18 117.229-67.808 13.659-28.76 15.35-41.060 16.717-122.099l1.235-72.678-178.497-1.235-0.654-48.84c-0.93-68.901 3.716-90.088 22.313-102.621 15.645-10.54 39.679-9.745 52.765 1.744 12.263 10.768 15.726 22.336 16.933 56.107l1.091 29.653h86.195l-1.381-33.143z" />
<glyph unicode="&#xf005;" glyph-name="star" horiz-adv-x="1152" d="M1056.2 553c52.4-7.6 73.4-72.199 35.4-109.199l-211.4-206 50-291c9-52.602-46.398-91.801-92.799-67.4l-261.4 137.4-261.4-137.4c-46.4-24.6-101.799 14.799-92.799 67.4l50 291-211.4 206c-38 37-17 101.6 35.4 109.199l292.2 42.6 130.6 264.8c23.6 47.799 91.4 47.199 114.801 0l130.6-264.8zM777.2 271.4l201.202 196-278 40.4-124.4 252-124.4-252-278-40.4 201.202-196-47.4-276.8 248.6 130.6 248.6-130.6z" />
<glyph unicode="&#xf007;" glyph-name="user" horiz-adv-x="896" d="M627.2 288c148.4 0 268.8-120.4 268.8-268.8v-51.199c0-53-43-96-96-96h-704c-53 0-96 43-96 96v51.199c0 148.4 120.4 268.8 268.8 268.8 57.6 0 85-32 179.199-32s121.801 32 179.199 32zM800-32v51.199c0 95.201-77.6 172.801-172.801 172.801-29.398 0-75.799-32-179.199-32-102.6 0-150 32-179.199 32-95.201 0-172.801-77.6-172.801-172.801v-51.199h704zM448 320c-159 0-288 129-288 288s129 288 288 288 288-129 288-288-129-288-288-288zM448 800c-105.801 0-192-86.199-192-192s86.199-192 192-192 192 86.199 192 192-86.199 192-192 192z" />
<glyph unicode="&#xf00c;" glyph-name="check1" d="M347.796 17.191l-332.8 332.8c-19.994 19.994-19.994 52.412 0 72.408l72.406 72.408c19.994 19.996 52.414 19.996 72.408 0l224.19-224.19 480.19 480.19c19.994 19.994 52.414 19.994 72.408 0l72.406-72.408c19.994-19.994 19.994-52.412 0-72.408l-588.8-588.802c-19.996-19.994-52.414-19.994-72.406 0.002z" />
<glyph unicode="&#xf017;" glyph-name="clock" d="M512 880c274 0 496-222 496-496s-222-496-496-496-496 222-496 496 222 496 496 496zM512-16c221 0 400 179 400 400s-179 400-400 400-400-179-400-400 179-400 400-400zM635.6 192.801l-169.799 123.398c-6.201 4.602-9.801 11.801-9.801 19.4v328.4c0 13.199 10.801 24 24 24h64c13.199 0 24-10.801 24-24v-283.4l133.6-97.199c10.801-7.801 13-22.801 5.201-33.6l-37.602-51.801c-7.799-10.6-22.799-13-33.6-5.199z" />
<glyph unicode="&#xf018;" glyph-name="clock1" d="M512 880c274 0 496-222 496-496s-222-496-496-496-496 222-496 496 222 496 496 496zM696.98 254c4.391 5.479 7.053 12.439 7.053 20 0 10.111-4.701 19.135-12.033 25l-116 85v288c0 17.662-14.338 32-32 32h-64c-17.662 0-32-14.338-32-32v-311.1c0-25.268 11.684-47.795 30-62.461l134-99.439c5.475-4.381 12.428-7.035 19.979-7.035 10.111 0 19.135 4.701 25.002 12.035l40 50z" />
<glyph unicode="&#xf04b;" glyph-name="play" horiz-adv-x="896" d="M848.8 466.6c63-37 62.799-128.199 0-165.199l-704-416c-63.4-37.6-144.801 7.6-144.801 82.6v832.2c0 83.602 87.6 116.4 144.801 82.602z" />
<glyph unicode="&#xf053;" glyph-name="chevron-left" horiz-adv-x="640" d="M69.039 417.94l388.702 388.68c18.74 18.74 49.141 18.74 67.879 0l45.342-45.34c18.719-18.719 18.738-49.039 0.078-67.799l-308.058-309.48 308.040-309.5c18.68-18.76 18.641-49.080-0.080-67.801l-45.34-45.34c-18.74-18.74-49.139-18.74-67.879 0l-388.682 388.702c-18.738 18.74-18.738 49.139 0 67.879z" />
<glyph unicode="&#xf054;" glyph-name="chevron-right" horiz-adv-x="640" d="M570.952 350.058l-388.688-388.688c-18.746-18.744-49.137-18.744-67.881 0l-45.334 45.334c-18.715 18.715-18.75 49.045-0.080 67.803l308.042 309.492-308.042 309.49c-18.67 18.758-18.635 49.088 0.080 67.803l45.334 45.334c18.746 18.744 49.137 18.744 67.881 0l388.686-388.688c18.746-18.744 18.746-49.135 0.002-67.881z" />
<glyph unicode="&#xf058;" glyph-name="check-circle" d="M512 880c273.934 0 496-222.066 496-496s-222.066-496-496-496-496 222.066-496 496 222.066 496 496 496zM512 784c-221.098 0-400-178.936-400-400 0-221.098 178.936-400 400-400 221.098 0 400 178.936 400 400 0 221.098-178.936 400-400 400zM792.408 523.466c9.334-9.41 9.273-24.607-0.135-33.943l-345.178-342.408c-9.41-9.336-24.605-9.273-33.939 0.137l-181.562 183.031c-9.336 9.412-9.273 24.609 0.137 33.943l45.438 45.072c9.41 9.334 24.605 9.271 33.939-0.139l119.584-120.555 282.706 280.432c9.41 9.336 24.605 9.275 33.939-0.135z" />
<glyph unicode="&#xf059;" glyph-name="check-circle1" d="M1008 384c0-273.934-222.066-496-496-496s-496 222.066-496 496 222.066 496 496 496 496-222.066 496-496zM454.628 121.371l368 368c12.494 12.496 12.494 32.76 0 45.256l-45.256 45.254c-12.494 12.498-32.758 12.498-45.256 0l-300.118-300.118-140.117 140.119c-12.496 12.496-32.76 12.496-45.256 0l-45.256-45.254c-12.494-12.496-12.494-32.76 0-45.256l208-208c12.498-12.496 32.76-12.496 45.258-0.002z" />
<glyph unicode="&#xf077;" glyph-name="chevron-up" horiz-adv-x="896" d="M481.942 634.952l388.688-388.686c18.744-18.746 18.744-49.137 0-67.881l-45.334-45.334c-18.715-18.715-49.045-18.75-67.803-0.080l-309.492 308.040-309.49-308.042c-18.758-18.67-49.088-18.635-67.803 0.080l-45.334 45.334c-18.744 18.746-18.744 49.137 0 67.881l388.688 388.686c18.744 18.746 49.135 18.746 67.881 0.002z" />
<glyph unicode="&#xf078;" glyph-name="chevron-down" horiz-adv-x="896" d="M414.058 133.049l-388.688 388.688c-18.744 18.746-18.744 49.137 0 67.881l45.334 45.334c18.715 18.715 49.045 18.75 67.803 0.080l309.492-308.042 309.49 308.042c18.758 18.67 49.088 18.635 67.803-0.080l45.334-45.334c18.744-18.746 18.744-49.137 0-67.881l-388.686-388.688c-18.746-18.744-49.137-18.744-67.883 0z" />
<glyph unicode="&#xf07a;" glyph-name="shopping-cart" horiz-adv-x="1152" d="M1056.24 293.362c-4.967-21.854-24.395-37.361-46.807-37.361h-586.29l13.090-64h536.836c30.801 0 53.631-28.602 46.807-58.639l-11.035-48.551c37.383-18.146 63.158-56.467 63.158-100.811 0-61.855-50.145-112-112-112s-112 50.145-112 112c0 31.348 12.895 59.67 33.646 80h-419.294c20.754-20.33 33.648-48.652 33.648-80 0-61.855-50.145-112-112-112s-112 50.145-112 112c0 41.557 22.65 77.801 56.262 97.131l-140.496 686.87h-139.766c-26.51 0-48 21.49-48 48v32c0 26.51 21.49 48 48 48h205.058c22.801 0 42.457-16.043 47.025-38.381l18.332-89.619h785.564c30.801 0 53.631-28.602 46.805-58.639z" />
<glyph unicode="&#xf081;" glyph-name="twitter-square" d="M800 832c53 0 96-43 96-96v-704c0-53-43-96-96-96h-704c-53 0-96 43-96 96v704c0 53 43 96 96 96h704zM702.2 514.4c25.602 18.6 48 41.799 65.801 68-23.6-10.201-49.199-17.6-75.6-20.4 27.199 16.199 47.799 41.801 57.6 72.199-25.199-15-53.6-26-83.199-31.6-24 25.6-58 41.4-95.801 41.4-80 0-146.6-72.199-128-161.199-108.801 5.6-205.8 57.6-270.4 137.199-11.4-19.4-17.799-41.801-17.799-66.199 0-0.074-0.133-0.064-0.133-0.137 0-45.498 23.262-85.604 58.531-109.064-21.398 0.801-41.799 6.801-59.199 16.6v-1.6c0-63.799 45-116.6 105-128.799-20.801-5.4-39-5.4-59.199-2.4 16.6-52 65-89.801 122.6-91-45-35.201-101.4-56-162.801-56-10.799 0-21 0.4-31.6 1.6 58-37.199 127-58.801 201.4-58.801 241.2 0 373.2 199.801 373.2 373.202 0 5.6 0 11.4-0.4 17z" />
<glyph unicode="&#xf082;" glyph-name="facebook-square" d="M800 832c52.984 0 96-43.016 96-96v-704c0-52.984-43.016-96-96-96h-274.5v304.62h115.561l22 143.381h-137.561v93.1c0 39.221 19.221 77.461 80.84 77.461h62.541v122s-56.762 9.68-111.041 9.68c-113.34 0-187.34-68.66-187.34-192.961v-109.279h-126v-143.381h126v-304.62h-274.5c-52.984 0-96 43.016-96 96v704c0 52.984 43.016 96 96 96h704z" />
<glyph unicode="&#xf086;" glyph-name="comments" horiz-adv-x="1152" d="M1064 123.6c30.6-61.4 74.801-109 75.6-109.6 12.6-13.4 16-33 8.801-50-7.4-17-24-28-42.4-28-107.199 0-193.4 40.6-250.4 77.6-38-8.799-78-13.6-119.6-13.6-172.4 0-319.8 80.801-382.6 195.6-19.4 2.4-38.4 5.6-56.801 9.801-57-37.201-143.4-77.6-250.4-77.6-18.398 0-35.199 11-42.398 28-7.4 17-3.801 36.6 8.799 50 0.801 0.799 44.801 48.398 75.4 109.799-55 54.4-88 122.4-88 196.4 0 176.801 186.199 320 416 320 172.6 0 320.6-81 383.6-196.199 199.4-23.602 352.4-155.801 352.4-315.8 0-74.199-33-142.199-88-196.4zM278.4 308.2l39.6-9c32-7.398 65-11.199 98-11.199 173.4 0 320 102.6 320 224s-146.6 224-320 224-320-102.6-320-224c0-57.4 32.4-101.199 59.4-128l49.6-49-31-62.199c-5.199-10.201-10.6-20.201-16-29.602 29.199 10.201 58 24.602 86.199 42.801zM996.6 192c27 26.801 59.4 70.6 59.4 128 0 98.4-96.6 183-225.4 212 0.6-6.6 1.4-13.199 1.4-20 0-161.801-156-295-358.6-316.6 58.199-59.201 154.6-99.4 262.6-99.4 33 0 66 3.801 98 11.199l39.801 9.201 34.199-22.201c28.199-18.199 57-32.6 86.199-42.799-5.398 9.4-10.799 19.4-16 29.6l-31 62.199z" />
<glyph unicode="&#xf087;" glyph-name="comments1" horiz-adv-x="1152" d="M832 512c0-176.801-186.199-320-416-320-82 0-158.199 18.6-222.6 50-43.6-25.4-104.201-50-177.4-50-6.4 0-12 3.6-14.6 9.6s-1.4 12.801 3 17.4c0.6 0.6 44.799 48.6 71.6 109-47.801 52.199-76 115.4-76 184 0 176.801 186.199 320 416 320s416-143.199 416-320zM1076 72c26.801-60.6 71-108.4 71.6-109 4.4-4.801 5.6-11.6 3-17.4-2.4-5.799-8.199-9.6-14.6-9.6-73.199 0-133.801 24.6-177.4 50-64.4-31.6-140.6-50-222.6-50-172.4 0-320.4 80.801-383.4 195.801 20.801-2.201 41.801-3.801 63.4-3.801 264.6 0 480 172.199 480 384 0 13.6-0.801 27-2.6 40.199 151.6-47.799 258.6-162.398 258.6-296.2 0-68.6-28.199-132-76-184z" />
<glyph unicode="&#xf08c;" glyph-name="linkedin" d="M832 832c35.199 0 64-29 64-64.6v-766.8c0-35.6-28.801-64.6-64-64.6h-768.2c-35.201 0-63.801 29-63.801 64.6v766.8c0 35.6 28.6 64.6 63.801 64.6h768.2zM270.8 64h0.199v427.6h-133v-427.6h132.801zM204.4 550c42.6 0 77 34.4 77 77 0 42.4-34.6 77-77 77-42.6 0-77-34.6-77-77s34.4-77 77-77zM768.6 64v234.4c0 115.199-25 203.798-159.4 203.798-64.6 0-108-35.398-125.799-69h-1.801v58.4h-127.4v-427.6h132.801v211.6c0 55.801 10.6 109.801 79.801 109.801 68 0 69-63.801 69-113.4v-208h132.799z" />
<glyph unicode="&#xf092;" glyph-name="github-square" d="M800 832.004c53 0 96-43 96-96v-704c0-53-43-96-96-96h-704c-53 0-96 43-96 96v704c0 53 43 96 96 96h704zM554.6 64.603c132 44 221.6 169.801 221.4 316.6 0 183.602-148.801 323-332.4 323s-324-139.398-324-323c0-146.799 92.4-272.398 224.4-316.6 17-3 23 7.4 23 16 0 8.201-0.4 53.4-0.4 81.201 0 0-92.799-20-112.199 39.398 0 0-15.201 38.4-36.801 48.4 0 0-30.199 20.801 2.201 20.4 0 0 32.799-2.6 51-34.199 29-51.201 77.6-36.4 96.6-27.801 3 21.199 11.6 36 21.199 44.6-74 8.201-148.6 19-148.6 146.201 0 36.398 10 54.6 31.199 78-3.6 8.799-14.799 44.199 3.4 90 27.801 8.6 91.4-35.801 91.4-35.801 26.4 7.4 55 11.199 83.199 11.199 28.201 0 56.801-3.799 83.201-11.199 0 0 63.6 44.4 91.4 35.801 18.199-46 6.799-81.4 3.398-90 21.201-23.4 34.201-41.602 34.201-78 0-127.801-78-138-152-146.201 12.199-10.4 22.6-30.199 22.6-61.4 0-44.6-0.4-99.799-0.4-110.6 0-8.6 6.201-19 23-16zM358.4 186.805c-3.801-0.801-7.4 0.799-7.801 3.398-0.4 3 2.201 5.602 6 6.4 3.801 0.4 7.4-1.199 7.801-3.799 0.6-2.602-2-5.201-6-6zM339.4 188.603c0 3-3.6 5.201-7.4 4.801-4 0-7-2.201-7-4.801 0-3 3-5.199 7.4-4.799 4 0 7 2.199 7 4.799zM312 190.805c-0.801-2.602-4.801-3.801-8.199-2.602-3.801 0.801-6.4 3.801-5.602 6.4 0.801 2.6 4.801 3.801 8.201 3 4-1.199 6.6-4.199 5.6-6.799zM287.4 201.604c1.799 1.6 0.799 5.6-1.801 8.201-3 3-6.799 3.398-8.6 1.199-2-1.801-1.199-5.6 1.801-8.199 3-3 6.799-3.4 8.6-1.201zM269.2 219.804c2.201 1.6 2.201 5.199 0 8.199-1.799 3-5.199 4.4-7.398 2.6-2.201-1.4-2.201-4.799 0-7.799 2.199-3 5.6-4.201 7.398-3zM256.2 239.204c1.801 1.4 1.4 4.4-0.799 7-2.201 2-5.201 3-7 1.201-1.801-1.4-1.4-4.4 0.799-7 2.201-2 5.201-3 7-1.201zM242.8 254.004c0.799 1.6-0.4 3.801-3 5.199-2.602 1-4.801 0.4-5.602-0.799-0.799-1.801 0.4-4 3-5.201 2.201-1.398 4.801-1 5.602 0.801z" />
<glyph unicode="&#xf099;" glyph-name="twitter" d="M918.74 592.568c0.65-9.096 0.65-18.195 0.65-27.291 0-277.44-211.166-597.116-597.118-597.116-118.904 0-229.36 34.438-322.274 94.211 16.895-1.947 33.137-2.598 50.68-2.598 98.109 0 188.426 33.137 260.548 89.664-92.264 1.951-169.584 62.377-196.225 145.545 12.996-1.949 25.99-3.248 39.637-3.248 18.842 0 37.686 2.6 55.227 7.146-96.162 19.494-168.285 103.959-168.285 205.968v2.598c27.938-15.594 60.428-25.34 94.861-26.637-56.527 37.686-93.561 102.010-93.561 174.781 0 38.984 10.393 74.721 28.588 105.908 103.309-127.35 258.6-210.516 432.728-219.614-3.248 15.594-5.197 31.836-5.197 48.080 0 115.654 93.564 209.868 209.868 209.868 60.428 0 115.004-25.34 153.342-66.273 47.43 9.096 92.91 26.639 133.197 50.68-15.596-48.732-48.732-89.666-92.264-115.654 42.234 4.547 83.168 16.244 120.852 32.486-28.584-41.582-64.322-78.617-105.256-108.506z" />
<glyph unicode="&#xf09a;" glyph-name="facebook" d="M1008 384c0-247.56-181.381-452.76-418.5-490v346.62h115.561l22 143.381h-137.561v93.1c0 39.221 19.221 77.461 80.82 77.461h62.561v122s-56.762 9.68-111.041 9.68c-113.34 0-187.34-68.66-187.34-192.961v-109.279h-126v-143.381h126v-346.62c-237.12 37.24-418.5 242.44-418.5 490 0 274 222 496 496 496s496-222 496-496z" />
<glyph unicode="&#xf09b;" glyph-name="github" horiz-adv-x="992" d="M331.8 101.203c0-4-4.602-7.199-10.4-7.199-6.6-0.6-11.201 2.6-11.201 7.199 0 4 4.602 7.201 10.4 7.201 6 0.6 11.201-2.6 11.201-7.201zM269.6 110.203c1.4 4 7.201 6 12.4 4.602 6-1.801 9.801-6.4 8.6-10.4-1.199-4-7.199-6-12.4-4-6 1.199-10 5.799-8.6 9.799zM358 113.603c5.801 0.6 11.199-2 11.801-5.799 0.6-4-3.4-7.801-9.201-9.201-6-1.4-11.199 1.201-11.799 5.201-0.602 4.6 3.398 8.398 9.199 9.799zM489.6 880.004c277.4 0 502.4-210.6 502.4-488 0-221.8-135.6-411.6-335.6-478-25.4-4.6-34.6 11.199-34.6 24.199 0 16.4 0.6 99.801 0.6 167.201 0 47-15.6 77-34 92.799 111.799 12.602 229.6 28 229.6 221 0 54.801-19.6 82.4-51.6 117.801 5.199 13 22.199 66.4-5.201 135.801-41.799 13.199-138-54-138-54-40 11.199-83 17-125.6 17s-85.6-5.801-125.6-17c0 0-96.199 67-138 54-27.4-69.201-10.4-122.801-5.199-135.801-32-35.199-47.201-62.801-47.201-117.801 0-192.398 112.801-208.6 224.6-221-14.398-13.199-27.398-35.398-32-67.398-28.6-13.201-102-35.4-145.799 41.799-27.4 47.6-77.201 51.6-77.201 51.6-49 0.602-3.199-30.799-3.199-30.799 32.801-15 55.6-73.201 55.6-73.201 29.4-89.6 169.4-59.6 169.4-59.6 0-42 0.6-110.4 0.6-122.799 0-13-9-28.801-34.6-24.201-199.4 66.801-339 256.6-339 478.4 0 277.4 212.2 488 489.6 488zM194.4 190.203c2.6 2.602 7.199 1.201 10.4-2 3.398-3.799 4-8.398 1.398-10.398-2.6-2.602-7.199-1.201-10.398 2-3.4 3.799-4 8.398-1.4 10.398zM172.801 206.404c1.398 2 4.6 2.6 8.6 1.4 4-2 6-5.201 4.6-7.801-1.4-2.801-5.4-3.4-8.6-1.4-4 2-6 5.201-4.6 7.801zM237.6 135.203c2.6 3.201 8.6 2.602 13-2 4-3.799 5.201-9.799 2.6-12.398-2.6-3.201-8.398-2.602-13 2-4.6 3.799-5.799 9.799-2.6 12.398zM214.8 164.603c3.199 2.6 8.398 0.6 11.199-4 3.199-4.6 3.199-9.799 0-12.4-2.6-2-8 0-11.199 4.602-3.201 4.6-3.201 9.799 0 11.799z" />
<glyph unicode="&#xf0d2;" glyph-name="pinterest" horiz-adv-x="992" d="M992 384c0-274-222-496-496-496-51.199 0-100.4 7.801-146.801 22.199 20.201 33 50.4 87 61.602 130 6 23.201 30.799 118 30.799 118 16.201-30.799 63.4-57 113.6-57 149.602 0 257.4 137.602 257.4 308.602 0 163.799-133.799 286.398-305.798 286.398-214 0-327.8-143.6-327.8-300.2 0-72.801 38.801-163.4 100.6-192.199 9.4-4.4 14.4-2.4 16.6 6.6 1.602 6.799 10 40.6 13.801 56.199 1.199 5 0.6 9.4-3.4 14.201-20.199 25-36.6 70.6-36.6 113.199 0 109.4 82.801 215.2 224 215.2 121.801 0 207.2-83 207.2-201.798 0-134.201-67.799-227.202-156-227.202-48.6 0-85.199 40.201-73.398 89.602 14 59 41 122.6 41 165.199 0 38-20.4 69.801-62.801 69.801-49.801 0-89.801-51.4-89.801-120.4 0-44 14.801-73.6 14.801-73.6s-49-207.602-58-246.4c-10-42.801-6-103.201-1.801-142.4-184.398 72.199-315.2 251.8-315.2 462 0 274 222 496 496 496s496-222 496-496z" />
<glyph unicode="&#xf0d3;" glyph-name="pinterest-square" d="M896 736v-704c0-53-43-96-96-96h-491.2c19.6 32.801 44.799 80 54.799 118.6 6 23 30.6 116.801 30.6 116.801 16-30.6 62.801-56.4 112.602-56.4 148.199 0 254.798 136.199 254.798 305.4 0 162.199-132.4 283.6-302.798 283.6-212 0-324.4-142.199-324.4-297.2 0-72 38.4-161.602 99.6-190.201 9.4-4.4 14.199-2.4 16.4 6.6 1.6 6.801 10 40.201 13.6 55.602 1.199 5 0.6 9.199-3.4 14-20.199 24.6-36.6 69.799-36.6 112 0 108.398 82 213.2 221.8 213.2 120.6 0 205.2-82.199 205.2-199.801 0-132.799-67-224.798-154.4-224.798-48.199 0-84.199 39.799-72.799 88.799 13.799 58.4 40.6 121.4 40.6 163.602 0 106-151 91.398-151-50 0-43.4 14.6-73 14.6-73-62.801-265.602-72.199-269-59.199-385.202l4.398-1.6h-177.199c-53 0-96 43-96 96v704c0 53 43 96 96 96h704c53 0 96-43 96-96z" />
<glyph unicode="&#xf0d4;" glyph-name="google-plus-square" d="M800 832c53 0 96-43 96-96v-704c0-53-43-96-96-96h-704c-53 0-96 43-96 96v704c0 53 43 96 96 96h704zM328 184c115.4 0 192 81 192 195.199 0 13-1.199 23.201-3.199 33.201h-188.801v-68.801h113.801c-4.801-29.199-34.4-86.199-113.602-86.199-68.199 0-123.799 56.6-123.799 126.4 0 70 55.6 126.398 123.799 126.398 39 0 64.801-16.6 79.602-30.799l54.199 52.199c-35 32.801-80 52.4-134 52.4-110.6 0-200-89.4-200-200s89.4-200 200-200zM768 347.6v58.4h-58v58h-58.4v-58h-58v-58.4h58v-58h58.4v58h58z" />
<glyph unicode="&#xf0d5;" glyph-name="google-plus-g" horiz-adv-x="1280" d="M772.122 439.008c3.668-19.385 6.287-38.768 6.287-63.912 0-219.506-147.211-375.096-368.808-375.096-212.168 0-384 171.83-384 384s171.832 384 384 384c103.729 0 190.166-37.719 257.222-100.584l-104.252-100.061c-28.291 27.242-78.057 59.199-152.971 59.199-130.967 0-237.84-108.443-237.84-242.554s106.873-242.554 237.84-242.554c151.922 0 209.028 109.49 217.93 165.547h-217.93v132.018l362.522-0.002zM1142.934 426.134h111.467v-112.002h-111.467v-111.467h-112.002v111.467h-111.465v112.002h111.465v111.465h112.002v-111.465z" />
<glyph unicode="&#xf0e0;" glyph-name="envelope" d="M928 768c53.020 0 96-42.98 96-96v-576c0-53.020-42.98-96-96-96h-832c-53.020 0-96 42.98-96 96v576c0 53.020 42.98 96 96 96h832zM928 672h-832v-81.609c44.85-36.525 116.359-93.32 269.174-212.98 33.668-26.484 100.41-90.152 146.826-89.402 46.424-0.742 113.145 62.908 146.826 89.402 152.838 119.678 224.33 176.461 269.174 212.98v81.609zM96 96h832v371.202c-45.83-36.504-110.838-87.738-209.894-165.305-45.088-35.496-120.672-110.357-206.106-109.895-85.855-0.463-162.41 75.5-206.124 109.91-99.059 77.568-164.049 128.789-209.876 165.291v-371.204z" />
<glyph unicode="&#xf0e1;" glyph-name="linkedin-in" d="M200.56 0h-185.76v598.2h185.76v-598.2zM107.58 679.8c-59.4 0-107.58 49.199-107.58 108.6 0 59.375 48.205 107.58 107.58 107.58s107.58-48.205 107.58-107.58c0-59.4-48.199-108.6-107.58-108.6zM895.8 0h-185.361v291.2c0 69.4-1.4 158.4-96.58 158.4-96.58 0-111.379-75.4-111.379-153.4v-296.2h-185.561v598.2h178.16v-81.6h2.6c24.801 47 85.381 96.6 175.76 96.6 188 0 222.56-123.799 222.56-284.6v-328.6h-0.199z" />
<glyph unicode="&#xf0e2;" glyph-name="envelope1" d="M1004.6 514.4c7.801 6.199 19.4 0.4 19.4-9.4v-409c0-53-43-96-96-96h-832c-53 0-96 43-96 96v408.8c0 10 11.4 15.6 19.4 9.398 44.799-34.799 104.199-79 308.2-227.2 42.201-30.801 113.4-95.6 184.4-95.199 71.4-0.602 144 65.6 184.6 95.199 204 148.199 263.202 192.6 308 227.4zM512 256c-46.4-0.801-113.199 58.4-146.801 82.801-265.398 192.6-285.6 209.6-346.798 257.398-11.6 9.201-18.4 23-18.4 37.801v38c0 53 43 96 96 96h832c53 0 96-43 96-96v-38c0-14.801-6.801-28.801-18.4-37.801-61.199-48-81.4-64.799-346.798-257.398-33.602-24.4-100.4-83.602-146.801-82.801z" />
<glyph unicode="&#xf14a;" glyph-name="check-square" horiz-adv-x="896" d="M800 832c53.020 0 96-42.98 96-96v-704c0-53.020-42.98-96-96-96h-704c-53.020 0-96 42.98-96 96v704c0 53.020 42.98 96 96 96h704zM800 32v704h-704v-704h704zM728.272 515.448l-345.178-342.408c-9.41-9.334-24.605-9.273-33.939 0.137l-181.562 183.031c-9.334 9.41-9.273 24.607 0.139 33.943l45.438 45.072c9.41 9.334 24.605 9.273 33.939-0.139l119.584-120.555 282.706 280.434c9.41 9.334 24.605 9.273 33.939-0.137l45.072-45.436c9.334-9.412 9.273-24.609-0.137-33.943z" />
<glyph unicode="&#xf14b;" glyph-name="check-square1" horiz-adv-x="896" d="M800-64h-704c-53.020 0-96 42.98-96 96v704c0 53.020 42.98 96 96 96h704c53.020 0 96-42.98 96-96v-704c0-53.020-42.98-96-96-96zM390.628 132.117l368 368c12.494 12.496 12.494 32.76 0 45.254l-45.256 45.256c-12.494 12.494-32.758 12.496-45.256 0l-300.118-300.118-140.117 140.119c-12.496 12.494-32.76 12.494-45.256 0l-45.256-45.256c-12.494-12.494-12.494-32.758 0-45.254l208-208c12.498-12.5 32.76-12.5 45.258-0.002z" />
<glyph unicode="&#xf167;" glyph-name="youtube1" horiz-adv-x="1152" d="M1099.31 647.834c22.824-85.734 22.824-264.61 22.824-264.61s0-178.877-22.824-264.612c-12.563-47.299-49.574-83-96.568-95.641-85.182-22.973-426.742-22.973-426.742-22.973s-341.56 0-426.742 22.973c-46.994 12.641-84.006 48.342-96.568 95.641-22.824 85.734-22.824 264.612-22.824 264.612s0 178.875 22.824 264.61c12.563 47.301 49.574 84.551 96.568 97.193 85.182 22.973 426.742 22.973 426.742 22.973s341.562 0 426.742-22.973c46.994-12.641 84.006-49.893 96.568-97.193zM464.29 220.818l285.478 162.402-285.478 162.41v-324.812z" />
<glyph unicode="&#xf16d;" glyph-name="instagram" d="M448.2 614c127.201 0 229.8-102.6 229.8-229.8s-102.6-229.798-229.8-229.798c-127.199 0-229.798 102.6-229.798 229.798 0 127.201 102.6 229.8 229.798 229.8zM448.2 234.8c82.201 0 149.4 67 149.4 149.398 0 82.4-67 149.4-149.4 149.4-82.398 0-149.398-67-149.398-149.4 0-82.398 67.199-149.398 149.398-149.398zM741 623.4c0-29.801-24-53.6-53.6-53.6-29.801 0-53.6 24-53.6 53.6s24 53.6 53.6 53.6 53.6-24 53.6-53.6zM893.2 569c4.201-74 4.201-295.6 0-369.6-3.6-71.801-20-135.4-72.398-187.801-52.4-52.6-116-69-187.801-72.4-74-4.199-295.8-4.199-369.8 0-71.799 3.602-135.199 20-187.799 72.4s-69 116-72.4 187.801c-4.199 74-4.199 295.798 0 369.798 3.6 71.801 19.801 135.4 72.4 187.801s116.199 68.801 187.799 72.199c74 4.201 295.8 4.201 369.8 0 71.801-3.6 135.4-20 187.801-72.398 52.6-52.4 69-116 72.398-187.801zM797.6 120c23.4 58.801 18 199 18 264.2s5.4 205.202-18 264.202c-15.799 39.4-46 69.6-85.199 85.199-58.801 23.201-199 18-264.202 18-65.199 0-205.2 5.4-264.2-18-39.4-15.799-69.6-46-85.199-85.199-23.201-58.801-18-199-18-264.202 0-65.199-5.4-205.2 18-264.2 15.799-39.4 46-69.6 85.199-85.199 58.801-23.201 199-18 264.2-18s205.202-5.4 264.202 18c39.4 15.799 69.6 46 85.199 85.199z" />
<glyph unicode="&#xf173;" glyph-name="tumblr" horiz-adv-x="640" d="M619.6-64.6c-27.199-29-100-63.4-194.799-63.4-241.602 0-294 177.6-294 281.2v288h-95c-11 0-20 9-20 20v136c0 14.4 9 27.201 22.6 32 124 43.602 163 152 168.6 234.202 1.6 22 13 32.6 32.199 32.6h141.801c11 0 20-9 20-20v-230.4h166c11 0 20-8.799 20-19.799v-163.4c0-11-9-20-20-20h-166.801v-266.4c0-68.4 47.4-107.199 136-71.6 9.602 3.799 18 6.4 25.4 4.4 7-1.801 11.6-6.801 14.801-15.801l44-128.6c3.6-10 6.6-21.201-0.801-29z" />
<glyph unicode="&#xf174;" glyph-name="tumblr-square" d="M800 832c53 0 96-43 96-96v-704c0-53-43-96-96-96h-704c-53 0-96 43-96 96v704c0 53 43 96 96 96h704zM635.4 103.6c4.6 4.801 2.6 11.801 0.6 18.201l-27.6 80.398c-2 5.602-4.801 8.801-9.201 9.801-4.799 1.199-10-0.4-16-2.801-55.398-22.199-85 2-85 44.801v166.6h104.201c6.799 0 12.4 5.6 12.4 12.4v102.199c0 6.801-5.602 12.4-12.4 12.4h-103.801v144c0 6.801-5.6 12.4-12.4 12.4h-88.6c-11.799 0-19-6.6-20-20.4-3.6-51.4-27.799-119-105.4-146.4-8.6-3-14.199-11-14.199-20v-85c0-6.799 5.6-12.398 12.4-12.398h59.4v-180c0-64.801 32.799-175.801 183.799-175.801 59.4 0 104.801 21.4 121.801 39.6z" />
<glyph unicode="&#xf17d;" glyph-name="dribbble" d="M512 880c273.496 0 496-222.504 496-496s-222.504-496-496-496-496 222.504-496 496 222.504 496 496 496zM839.94 651.268c-8.932-12.082-79.926-103.092-236.568-167.045 14.873-30.443 25.73-55.146 37.234-83.229 140.969 17.729 281.038-10.682 295.004-13.637-0.932 99.996-36.664 191.818-95.67 263.91zM792.842 700.26c-104.189 92.438-245.77 127.363-380.122 94.979 11.709-15.68 88.656-120.465 158.080-248.016 150.646 56.465 214.422 142.184 222.042 153.037zM331.882 766.76c-118.527-55.906-207.124-165.17-234.596-296.636 18.949-0.25 193.494-1.008 391.668 51.619-70.197 124.785-145.902 229.7-157.072 245.018zM88.34 383.354c0-108.814 41.248-208.164 108.914-283.272 68.674 117.559 207.864 241.462 361.062 284.612-10.635 24.068-22.221 48.162-34.348 71.898-211.572-63.318-416.876-60.672-435.412-60.291-0.131-4.303-0.217-8.615-0.217-12.947zM251.954 49.129c125.508-97.871 289.312-113.791 425.538-55.766-6.301 37.17-30.898 166.711-90.379 321.278-170.801-58.27-290.904-175.047-335.158-265.512zM748.714 32.15c95.043 64.268 162.705 166.074 181.59 283.956-14.494 4.574-131.135 39.363-263.894 18.111 55.412-152.273 77.961-276.294 82.305-302.066z" />
<glyph unicode="&#xf194;" glyph-name="vimeo-square" d="M800 832c53 0 96-43 96-96v-704c0-53-43-96-96-96h-704c-53 0-96 43-96 96v704c0 53 43 96 96 96h704zM767.6 532.8c3.801 83.199-27.199 126-93 128-88.6 2.799-148.799-47.201-180.199-150.201 39.199 16.801 97.199 21.201 90.4-44.4-1.801-22.199-16.201-54.199-43-96.6-74.4-117.4-92.602-78.199-133.602 181-11.6 73-42.199 107-92 102.201-44-4-114.398-76-188.199-140.801l30-38.801c28.6 20.201 45.4 30.201 50.199 30.201 41.602 0 63-108.201 113.4-292.8 25.801-68.799 57.201-103.199 94.6-103.199 60.201 0 133.801 56.6 220.8 169.6 84.199 108.199 127.801 193.6 130.6 255.8z" />
<glyph unicode="&#xf1a0;" glyph-name="google" horiz-adv-x="976" d="M976 372.4c0-283-193.801-484.4-480-484.4-274.4 0-496 221.6-496 496s221.6 496 496 496c133.6 0 246-49 332.6-129.801l-135-129.799c-176.6 170.4-505 42.4-505-236.4 0-173 138.201-313.2 307.4-313.2 196.4 0 270 140.799 281.6 213.798h-281.6v170.6h472.2c4.602-25.398 7.801-49.799 7.801-82.799z" />
<glyph unicode="&#xf1b4;" glyph-name="behance" horiz-adv-x="1152" d="M464 421.6c87.199-24.6 129.4-90.4 129.4-179.4 0-144-121-205.798-249.8-205.798h-343.6v708.798h334.2c121.4 0 226.602-34.398 226.602-175.6 0-71.6-33.201-117.6-96.801-148zM155.801 624.2v-165.398h158c55.6 0 95 24.199 95 84.398 0 65.201-50.602 81-106.801 81h-146.199zM322.4 156.801c63.4 0 115.199 22.398 115.199 94 0 72.6-43.4 101.199-112 101.199h-169.799v-195.199h166.6zM1039.4 638.2h-287.4v69.801h287.4v-69.801zM1152 285.6c0-9-0.6-18-1.199-26.4h-370.202c0-82.199 43.4-130.6 126-130.6 42.801 0 98 23.201 111.4 67h124.4c-38.201-117.4-117.6-172.6-240.202-172.6-162 0-262.6 109.6-262.6 269.4 0 154 106.201 271.6 262.6 271.6 161 0 249.8-126.6 249.8-278.4zM780.8 348h229.398c-6 68-41.6 109.6-112.398 109.6-67.602 0-112.4-42.199-117-109.6z" />
<glyph unicode="&#xf1b5;" glyph-name="behance-square" d="M373 310c0-38.6-28-50.801-62.4-50.801h-90.199v105.801h92c37.199-0.199 60.6-15.6 60.6-55zM357.6 474.6c0-32.6-21.4-45.799-51.6-45.799h-85.4v89.6h79.201c30.398 0 57.799-8.4 57.799-43.801zM622.2 428.2c38.4 0 57.602-22.398 61-59.398h-124.398c2.398 36.6 26.799 59.398 63.398 59.398zM896 736v-704c0-53-43-96-96-96h-704c-53 0-96 43-96 96v704c0 53 43 96 96 96h704c53 0 96-43 96-96zM543.4 526h155.6v37.801h-155.6v-37.801zM457.4 305.4c0 48.199-22.801 89.799-70 103.199 34.4 16.4 52.4 35.4 52.4 74 0 76.4-57 95-122.801 95h-181v-384h186.199c69.801 0.4 135.201 33.801 135.201 111.801zM760 335c0 82.199-48.199 150.801-135.199 150.801-84.801 0-142.201-63.602-142.201-147.201 0-86.6 54.6-146 142.201-146 66.398 0 109.398 29.801 130.199 93.6h-67.4c-7.4-23.799-37.199-36.199-60.4-36.199-44.799 0-68.199 26.199-68.199 70.6h200.4c0.199 4.6 0.6 9.6 0.6 14.4z" />
<glyph unicode="&#xf231;" glyph-name="pinterest-p" horiz-adv-x="768" d="M408 883c188.4 0 360-129.6 360-328.2 0-186.602-95.4-393.602-307.8-393.602-50.398 0-114 25.201-138.6 72-45.6-180.6-42-207.6-142.799-345.6-10.4-3.799-7-4.6-13.801 3-3.6 37.801-9 75-9 112.801 0 122.4 56.4 299.4 84 418.2-15 30.6-19.199 67.801-19.199 101.4 0 160 187.799 184 187.799 51.6 0-78-52.799-151.199-52.799-226.798 0-51.602 42.6-87.602 92.398-87.602 138 0 180.602 199.201 180.602 305.4 0 142.201-100.801 219.6-237 219.6-158.4 0-280.8-114-280.8-274.798 0-77.4 47.4-117 47.4-135.6 0-15.602-11.4-70.801-31.201-70.801-48 0-127.199 80-127.199 220.8 0 221.398 202.8 358.2 408 358.2z" />
<glyph unicode="&#xf27d;" glyph-name="vimeo-v" d="M895.6 588.8c-4-87.201-64.799-206.602-182.799-358.202-121.801-158.4-224.8-237.6-309.202-237.6-52.199 0-96.4 48.199-132.6 144.6-70.4 258.4-100.4 409.8-158.6 409.8-6.801 0-30.201-14.201-70.4-42.201l-42 54.4c103.199 90.6 201.8 191.4 263.6 197 69.801 6.801 112.6-41 128.801-143 57.4-363 82.799-417.798 187.199-253.4 37.4 59.201 57.6 104.201 60.4 135.201 9.6 91.799-71.6 85.6-126.6 62 44 144.199 128.199 214.2 252.4 210.2 91.6-2.4 135-62.199 129.799-178.799z" />
<glyph unicode="&#xf2b3;" glyph-name="google-plus" d="M512 880c273.8 0 496-222.2 496-496s-222.2-496-496-496-496 222.2-496 496 222.2 496 496 496zM370.6 136c142.6 0 237.6 100.801 237.6 242.4 0.002 0.281 0.004 0.365 0.004 0.646 0 13.926-1.307 27.549-3.803 40.754h-233.8v-85.201h140.201c-10.4-68.4-75-106.6-140.201-106.6-86 0-154.4 71-154.4 156.199 0 85.201 68.602 156.201 154.4 156.201 36.201 0 72.4-12.4 98.801-38.201l67.199 65.201c-45.799 42.6-103.4 64.6-166 64.6-136.875 0-248-111.125-248-248s111.125-248 248-248zM831 348.4h70.4v71h-70.4v71h-71v-71h-71v-71h71v-71h71v71z" />
<glyph unicode="&#xf2bd;" glyph-name="user-circle" horiz-adv-x="992" d="M496 688c106 0 192-86 192-192s-86-192-192-192-192 86-192 192 86 192 192 192zM496 400c53 0 96 43 96 96s-43 96-96 96-96-43-96-96 43-96 96-96zM496 880c274 0 496-222 496-496s-222-496-496-496-496 222-496 496 222 496 496 496zM496-16c99.4 0 190.199 36.6 260.2 96.801-29.799 46-80.799 77-139.199 79-41.6-13-81.199-19.201-121-19.201s-79.4 6.4-121 19.201c-58.4-1.801-109.4-33-139.199-79 70-60.201 160.799-96.801 260.2-96.801zM821.4 152.199c46.799 65.4 74.6 145.4 74.6 231.8 0 220.6-179.4 400-400 400s-400-179.4-400-400c0-86.4 27.801-166.4 74.6-231.8 49 62.801 124.4 103.801 210.202 103.801 20.398 0 52.199-19.199 115.199-19.199 63.199 0 94.801 19.199 115.199 19.199 86 0 161.4-41 210.202-103.801z" />
<glyph unicode="&#xf397;" glyph-name="dribbble-square" d="M180.4 439.6c17.799 84.801 74.799 155.4 151.4 191.4 7.199-9.801 56-77.6 101.398-158-128-34-240.6-33.6-252.798-33.4zM629.2 588c-5-7-46-62.199-143.199-98.801-44.801 82.201-94.4 149.801-102 160 86.6 21 178-1.6 245.2-61.199zM280.2 168c28.602 58.4 106 133.6 216.202 171.199 38.4-99.6 54.4-183.199 58.4-207.2-88-37.4-193.602-27.199-274.602 36zM477.8 384.4c-98.801-27.801-188.602-107.801-233-183.6-43.602 48.6-70.201 112.6-70.201 182.799 0 2.801 0.201 5.6 0.201 8.4 12-0.4 144.398-2 280.798 38.801 7.801-15.4 15.4-30.801 22.201-46.4zM547.6 351.8c85.6 13.799 161-8.602 170.201-11.602-12.201-76-55.801-141.799-117.201-183.199-2.799 16.6-17.199 96.6-53 194.801zM507 448.6c101 41.4 146.801 100 152.6 107.801 38.201-46.4 61.201-105.6 61.801-170.201-9 2-99.4 20.201-190.4 8.801-7.4 18-14.4 34-24 53.6zM896 736v-704c0-53-43-96-96-96h-704c-53 0-96 43-96 96v704c0 53 43 96 96 96h704c53 0 96-43 96-96zM768 384c0 176.4-143.6 320-320 320s-320-143.6-320-320 143.6-320 320-320 320 143.6 320 320z" />
<glyph unicode="&#xf39e;" glyph-name="facebook-f" horiz-adv-x="640" d="M558.28 320h-149.379v-448h-200.34v448h-162.781v185.32h162.781v141.24c0 160.68 95.719 249.44 242.16 249.44 70.139 0 143.5-12.52 143.5-12.52v-157.781h-80.84c-79.641 0-104.48-49.42-104.48-100.119v-120.26h177.82z" />
<glyph unicode="&#xf3aa;" glyph-name="google-drive" d="M678 266.2l-327.2 565.8h322.398l327.202-565.8h-322.4zM403 219h621l-161.199-283h-621zM308.2 761.2l165.801-282.798-312.8-542.4-161.199 283z" />
<glyph unicode="&#xf3ab;" glyph-name="google-play" d="M650.6 427.4l-441.4 442.6 561.602-322.4zM94 896l513.2-511.8-513.2-512c-26 13.602-43.4 38.4-43.4 70.602v882.6c0 32.199 17.4 57 43.4 70.6zM944.4 444.8c38.4-28.602 38.4-93 2.4-121.602l-120.201-68.199-131.4 129 131.4 129zM209.2-102l441.4 442.6 120.201-120.199z" />
<glyph unicode="&#xf40a;" glyph-name="vimeo" d="M806.4 832c49.4 0 89.6-40.199 89.6-89.6v-716.8c0-49.4-40.199-89.6-89.6-89.6h-716.8c-49.4 0-89.6 40.199-89.6 89.6v716.8c0 49.4 40.199 89.6 89.6 89.6h716.8zM754 534.4c3.801 84.4-27.6 127.6-94.199 129.4-89.801 2.799-150.602-47.801-182.4-152 39.799 17 98.6 21.6 91.6-44.801-2-22.4-16.6-55-43.6-97.801-75.4-118.799-93.801-79.199-135.201 183.201-11.6 73.799-42.6 108.199-93 103.4-44.6-4-115.799-76.801-190.398-142.4l30.398-39.201c29 20.201 46 30.4 50.801 30.4 42 0 63.801-109.4 114.801-296 26.199-69.799 58-104.6 95.799-104.6 60.801 0 135.4 57.199 223.4 171.6 85.199 109.4 129.199 195.801 132 258.8z" />
<glyph unicode="&#xf431;" glyph-name="youtube-square" d="M373.6 491.8l190.4-108.201-190.4-108.199v216.4zM896 736v-704c0-53-43-96-96-96h-704c-53 0-96 43-96 96v704c0 53 43 96 96 96h704c53 0 96-43 96-96zM812 383.4c0 0 0 119.199-15.199 176.4-8.4 31.6-33 56.398-64.4 64.799-56.6 15.4-284.4 15.4-284.4 15.4s-227.8 0-284.4-15.4c-31.4-8.4-56-33.199-64.4-64.799-15.199-57-15.199-176.4-15.199-176.4s0-119.201 15.199-176.4c8.4-31.6 33-55.4 64.4-63.801 56.6-15.199 284.4-15.199 284.4-15.199s227.8 0 284.4 15.4c31.4 8.4 56 32.199 64.4 63.799 15.199 57 15.199 176.201 15.199 176.201z" />
</font>
</defs>
</svg>
