<svg xmlns="http://www.w3.org/2000/svg" xmlns:xlink="http://www.w3.org/1999/xlink" id="Layer_1" x="0px" y="0px" viewBox="0 0 121.7 95.6" style="enable-background:new 0 0 121.7 95.6;" xml:space="preserve">
<style type="text/css">
	.st0{fill:#010300;}
	.st1{fill:none;stroke:#000000;stroke-miterlimit:10;}
</style>
<clipPath id="svg-arrow">
<path d="M121.7,1.2c0,0-0.2,0.5-0.5,1.5c-0.3,1-0.7,2.4-1.4,4.3c-0.6,1.8-1.5,4-2.5,6.5c-0.5,1.2-1.1,2.5-1.7,3.9  c-0.7,1.4-1.4,2.8-2.1,4.3c-1.5,2.9-3.3,6.1-5.4,9.2c-2.1,3.2-4.4,6.5-7,9.7c-2.6,3.3-5.4,6.5-8.5,9.6c-3,3.2-6.3,6.1-9.7,9  c-3.4,2.9-7,5.4-10.7,7.9c-3.6,2.4-7.4,4.5-11.1,6.4c-1.9,0.9-3.7,1.8-5.6,2.6c-1.8,0.8-3.7,1.5-5.5,2.2c-1.8,0.7-3.6,1.2-5.3,1.8  c-1.7,0.5-3.4,1-5,1.4c-1.6,0.4-3.2,0.8-4.7,1.1c-1.5,0.3-2.9,0.6-4.3,0.8c-1.3,0.2-2.6,0.3-3.8,0.5c-1.2,0.1-2.2,0.2-3.2,0.3  c-1,0.1-1.8,0.1-2.6,0.1c-0.8,0-1.4,0-1.9,0c-1,0-1.6,0-1.6,0c-0.5,0-1-0.4-1-0.9c0-0.5,0.3-0.9,0.8-0.9l0,0c0,0,0.5-0.1,1.5-0.3  c1-0.2,2.5-0.4,4.3-0.9c0.9-0.2,2-0.4,3.1-0.6c1.1-0.3,2.3-0.5,3.6-0.9c2.6-0.6,5.4-1.4,8.5-2.3c1.5-0.5,3.1-1,4.8-1.5  c1.6-0.6,3.3-1.1,5.1-1.8c3.5-1.3,7-2.8,10.7-4.6c0.9-0.4,1.8-0.9,2.7-1.4c0.9-0.5,1.8-0.9,2.7-1.4c0.9-0.5,1.8-1,2.8-1.5  c0.9-0.5,1.8-1.1,2.7-1.6c3.6-2.2,7.3-4.6,10.7-7.2c3.4-2.6,6.8-5.3,9.9-8.3c3.1-2.9,6.1-5.9,8.6-9.1c0.7-0.8,1.3-1.5,1.9-2.3  c0.6-0.8,1.2-1.6,1.8-2.3c1.1-1.6,2.3-3.1,3.3-4.7c2.1-3.1,3.9-6.1,5.4-9c0.8-1.4,1.4-2.9,2.1-4.2c0.6-1.4,1.2-2.6,1.7-3.9  c0.5-1.2,0.9-2.4,1.4-3.4c0.4-1.1,0.7-2.1,1-3c0.6-1.8,1-3.2,1.3-4.2c0.3-1,0.4-1.5,0.4-1.5c0.1-0.5,0.7-0.8,1.2-0.7  C121.6,0.2,121.9,0.7,121.7,1.2C121.7,1.2,121.7,1.2,121.7,1.2 M23.3,95.5C23.4,95.5,23.4,95.5,23.3,95.5c0.6,0.2,1.2,0,1.4-0.5  c0.2-0.5,0.1-1.1-0.4-1.4l0,0l-2.7-1.3c-0.9-0.4-1.8-0.8-2.7-1.2L16.3,90c-0.9-0.4-1.8-0.8-2.7-1.2c-0.9-0.4-1.8-0.7-2.8-1.1  c-0.9-0.3-1.9-0.7-2.8-1C7,86.4,6,86,5.1,85.7c-1-0.3-1.9-0.6-2.9-0.8L3.1,88c1.4-1.1,2.8-2.2,4.1-3.3c1.3-1.1,2.6-2.4,3.9-3.6  c1.3-1.2,2.4-2.6,3.5-4c0.5-0.7,1.1-1.4,1.6-2.2c0.5-0.8,1-1.5,1.4-2.3l0,0c0.1-0.3,0.1-0.6-0.1-0.9c-0.3-0.5-0.9-0.7-1.4-0.4  c-1.6,0.9-2.9,2-4.3,3.1c-1.3,1.1-2.6,2.3-3.8,3.5l-1.8,1.8c-0.6,0.6-1.2,1.2-1.8,1.8c-0.6,0.6-1.2,1.2-1.8,1.9l-1.8,1.9l-0.2,0.2  c-0.3,0.3-0.4,0.6-0.5,1c-0.1,0.9,0.6,1.8,1.5,1.9c1.9,0.2,3.8,0.5,5.7,0.8c0.9,0.2,1.9,0.4,2.8,0.6c0.9,0.2,1.9,0.5,2.8,0.8  c1.8,0.6,3.6,1.3,5.4,2.1c0.9,0.4,1.7,0.8,2.6,1.3C21.7,94.5,22.5,95,23.3,95.5"></path>
</clipPath>
<path clip-path="url(#svg-arrow)" stroke-width="30" d="M121.7-6.9c-1.3,8.5-6.9,46.5-43.4,69.7C32.1,92.2-9.3,85-15,83.4"></path>
</svg>