<svg xmlns="http://www.w3.org/2000/svg" xmlns:xlink="http://www.w3.org/1999/xlink" id="Layer_1" x="0px" y="0px" viewBox="0 0 342.2 167.4" style="enable-background:new 0 0 342.2 167.4;" xml:space="preserve">
<style type="text/css">
	.st0{fill:#1989FB;}
	.st1{fill:none;stroke:#FF0000;stroke-miterlimit:10;}
</style>
<clipPath id="signature-012">
	<path class="st0" d="M118.8,163.8c-0.3,0.3-0.5,0.7-0.8,1.1c-1.1,1.1-3,1.2-3.8,0.1c-0.1-0.1-0.1-0.3-0.1-0.5   c-0.3-0.1-0.5-0.2-0.8-0.3c0.1-0.3,0.2-0.6,0.2-0.8l-0.2-0.9l1.6-2.2c-0.4-0.9-0.8-2.1-1.4-3c-2-3-3.9-6-6-8.9   c-1.6-2.3-3.5-4.5-5.2-6.8c-0.4-0.6-0.7-1.2-1.1-1.8c-0.7-1.2-1.4-2.4-2.7-3.1c-0.5-0.3-0.9-0.9-1.3-1.4c-2.3-2.6-4.6-5.3-6.9-8   c-0.5-0.5-0.7-1-0.8-1.6c0.1,0,0.3,0,0.3,0.1c1.2,1.4,2.3,2.7,3.5,4.1c0.7,0.9,1.5,1.7,2.2,2.6c-2.3-4.1-5.3-7.5-8.7-10.7H86   c-0.1-0.1-0.2-0.1-0.3-0.1c-0.6-0.4-0.7-1.2-1.4-1.6c-0.7-0.4-1.2-1.1-1.7-1.6c-0.5-0.5-1.1-1-1.6-1.5l-1.7-1.7   c-0.4-0.4-0.8-0.7-1.2-1.1c-0.3-0.4-0.5-0.9-0.8-1.4c-1.8-1.7-3.8-3.4-5.6-5.1c-2-1.9-3.9-3.9-6-5.7c-1.2-1-2.5-1.8-3.7-2.7   c-5.3-4.1-10.6-8.1-15.8-12.1c-7.5-5.7-15.4-10.8-23.4-15.6c-0.4-0.2-0.7-0.4-1.2-0.6c-1.2,2.3-2.3,4.5-3.5,6.7   c-0.8,1.5-1.6,3-2.5,4.4c-1.2,1.8-1.9,2-4,1.3l-1.6-0.5c0.3-0.3,0.5-0.5,0.6-0.7l-0.3-0.5c0-0.1,0-0.2,0.1-0.3   c0.1-0.1,0.2-0.3,0.3-0.3c1.6-0.7,2.2-2.3,2.9-3.7c1.1-2.3,2.3-4.5,3.5-6.8l0.8-1.7c-0.4-0.3-0.7-0.5-1.1-0.7   c-2.9-1.5-5.8-2.9-8.6-4.4c-1.6-0.8-3.1-1.8-4.5-2.7v-2.5l1.8-2.1c1.8,0.1,3.4,0.2,5,0.3c1,0.1,2-0.1,2.9-0.3c4.1-0.9,8.1-2.4,12-4   c0.9-0.4,1.5-1,2-1.8c3.2-5.9,6.5-11.8,9.7-17.6c0.4-0.6,0.8-1.2,1.3-1.9c1,0.5,1.8,1,2.6,1.5c-1.4,2.2-2.9,4.4-4.3,6.6   c-1,1.5-2.1,3-2.5,5c-0.4,1.6-1.1,3.2-1.7,4.9c0.4-0.1,0.7-0.2,1-0.3c5.4-2.7,10.8-5.2,16.1-8.1c5.8-3.1,11.4-6.5,17.1-9.8   c1.9-1.1,3.9-2.1,5.9-3.1c0.2-0.1,0.4-0.3,0.6-0.2c1.2,0.3,1.9-0.6,2.8-1.1c0.7-0.4,1.4-0.8,2.2-1.1c1-0.2,2-0.8,2.5-2.2   c-1.6,0.4-2.7,1.4-4.2,1.5l2.9-1.8c8-5.1,15.9-10.1,23.9-15.3c0.5-0.4,1-0.8,1.5-1.3V6.2c0.3-0.7,1.4-0.6,1.6-1.4   c-2.1-0.3-3.5,0.8-4.9,2.1C101,7,101,7.3,100.9,7.6V7.6c-0.1,0.1-0.3,0.1-0.5,0.2c-0.1-0.3-0.2-0.5-0.3-0.8c-0.4-0.1-0.8,0-1-0.6   c0.9-3.4,7.3-5.9,10-4.8l1.2,1.8c-0.1,0.3-0.3,0.7-0.5,1.2c0.1,0.3,0.1,0.7,0.3,1c0.5,1,0.2,1.8-0.5,2.5c-1.1,1-2.3,1.8-3.7,2.6   c0.2-0.2,0.3-0.5,0.4-0.8c-0.7,0-1.1,0.4-1.5,0.7L99,15.7c-0.7,0.6-1.4,1.2-2.2,1.6c-3.1,2.1-6.3,4.1-9.5,6.1   c-1.3,0.8-2.6,1.4-4.2,2.3c-0.3,0.3-0.8,0.8-1.3,1.3l-0.7-0.5c-6.8,4.1-13.2,8.7-20.4,11.9c0.8,0.8,1.6-0.2,2.6,0.1   c-0.9,0.5-1.6,1-2.4,1.4c-5.8,3.4-11.6,6.8-17.7,9.5c-3.6,1.6-7.2,3.1-10.7,4.7c-2,0.8-3.6,2.1-4.6,4.2c-1.1,2.3-2.4,4.6-3.5,6.9   c-0.2,0.3-0.3,0.6-0.4,1.1c3.4,2.1,6.7,4.2,10,6.4c0,0.1-0.1,0.2-0.1,0.2l-2-0.8c-0.7-0.3-1.4-0.6-2.2-0.7c0.2,0.2,0.3,0.4,0.5,0.5   c2.1,1.4,4.2,2.8,6.3,4.2c1,0.6,2,1.2,3,1.9c1.6,1.2,3.2,2.4,4.8,3.6c2.7,2.1,5.5,4.1,8.2,6.2c1.4,1.1,2.5,2.3,3.8,3.5l2.1,1.9   c0.2,0.1,0.4,0.1,0.6,0.1c-0.1-1.2-1.2-1.6-1.9-2.7c0.6,0.4,0.9,0.6,1.2,0.8c2.4,1.7,4.7,3.5,7.1,5.2c3,2,5.5,4.6,8.2,6.9   c1.5,1.3,2.9,2.7,4.3,4.1c3.5,3.3,6.7,6.9,9.9,10.3c3.7,4,7.3,8.1,10.7,12.4c1.6,2,3.4,3.9,5,6c1.7,2.1,3.3,4.2,4.8,6.3   c1.3,1.8,2.5,3.8,3.7,5.7c0.9,1.4,1.7,2.7,2.7,4.2c0.3-0.7-0.6-1.1-0.4-1.8c0.2,0.3,0.4,0.5,0.6,0.8l3.2,5.2   c0.8,1.5,1.4,3.2,1.6,4.9C119.7,162.2,119.6,163.1,118.8,163.8z M26.7,91.9c0.6,1.1,0.3,2-0.5,2.7c-0.6,0.6-1.3,1.3-2,1.8   c-1-0.4-1.5-0.7-0.8-1.6c-0.4-0.6,0.1-1,0.4-1.4c-0.8-1.1-1.9-1.3-3-1.5c-2.5-0.5-5-0.7-7.5-0.6h-2.5c1.3-0.5,2.4,0.1,3.5-0.8   c-3.2-0.2-6,0.5-9.1,1.1c-0.1-0.5-0.2-1-0.2-1.5c-0.2-0.2-0.8,0-0.7-0.8c1-1.4,2.3-2,4.2-1.7c2,0.3,4,0,6,0.1   c2.3,0.2,4.5,0.4,6.7,1.1c1.1,0.3,2.2,0.7,3.1,1.5c0.3,0.3,0.6,0.4,1.2,0.7c-0.2-1-0.5-1.5-1.2-1.7c-1.3-0.5-2.7-1-4.1-1.4   c-1.1-0.3-2.3-0.4-3.5-0.8c0.4,0,0.7-0.1,1.1-0.1c2,0.2,4,0.4,6,1.1c1.5,0.5,2.7,1.4,2.8,3.2C26.4,91.5,26.5,91.7,26.7,91.9z    M22.8,59c-0.1-0.1-0.2-0.2-0.2-0.2c-2.3,0.6-4.4,2-6.8,2.5v0.3c1.4,0.8,2.8,1.5,4.4,2.4C21.1,62.3,21.9,60.7,22.8,59z M23.3,57.3   c-0.9,0.3-1.8,0.6-2.9,1C21.4,58.8,22.3,58.5,23.3,57.3z M23.8,62.7l0.8-1.2l-0.4,1.9c1.2-1.8,2.3-3.6,2.3-6   c-1.8,0.7-1.9,2.5-2.7,3.7C23.6,61.7,23.2,62.2,23.8,62.7z M48.1,86.2C48,85.8,48,85.7,48,85.7c-1.6-1.2-3.3-2.5-5-3.6   c-3.4-2.4-6.9-4.8-10.3-7c-1.4-0.9-2.7-2.2-4.9-2.1c0.7,0.6,1.3,1,1.9,1.4c2.6,1.7,5.3,3.4,8,5.2c3,2,5.7,4.2,8.8,5.9   C46.9,85.6,47.4,85.8,48.1,86.2z M29.1,50.2c1.3-0.3,1.5-1.5,1.9-2.6L29.1,50.2z M40.1,34.7c0.1-0.1,0.3-0.1,0.7-0.1   c-1.8,3-3.4,5.6-5.1,8.6C35.9,41.5,39.2,35.5,40.1,34.7z M47.7,44.2c1-0.3,2.1-0.5,3.1-1.5C49.1,42.4,48.5,43.5,47.7,44.2z    M51.2,42.5c1.3,0.1,4.6-1.7,5.5-2.9C54.7,40.4,53.1,41.3,51.2,42.5z M83.2,118c-0.4-0.4-0.7-0.8-1.1-1.2   C82.2,117.4,82.4,117.9,83.2,118z M100.4,12c0.1,0.1,0.2,0.2,0.2,0.3c0.4-0.3,0.8-0.6,1.2-1.1L100.4,12z M102.6,10.5   c-0.3,0.2-0.4,0.4-0.7,0.6c0.2,0,0.5,0.1,0.7-0.1c1.2-0.7,2.3-1.4,3.4-2.2c1.2-1,2.3-2.1,3.4-3.1l-0.2-0.3c-0.3,0.1-0.7,0.1-1,0.3   c-0.7,0.5-1.3,1-2,1.5C105,8.4,103.8,9.5,102.6,10.5z"></path>
	<path class="st0" d="M63,74.2c0.1-0.2,0.2-0.3,0.3-0.5c-1.1-0.7-1.6-2-3-2.4c-0.3-0.1-0.5-0.5-0.8-0.8c-0.4-0.4-0.7-0.9-1.1-1.3   c-0.2-0.2-0.2-0.5-0.3-0.7c-0.1-0.5-0.1-0.9-0.1-1.4c-1-0.1-2.2,0.8-3.1-0.5c0.1-0.4,0.1-0.8,0.1-1.4c0.4-0.3,0.7-0.5,1.1-0.8   l-0.1,0.1c1.1,0.1,2.3,0.1,3.3-0.5c0.3-0.2,0.7-0.3,0.9-0.6c1-1.1,2.2-2.1,3.4-2.9c1.1-0.8,2.2-1.6,3-2.7c0.3-0.5,0.7-0.8,1.1-1.2   c0.9-0.7,1.8-1.3,2.7-1.9c1.1-0.7,2.3-1.4,3.4-2c0.7-0.4,1.5-0.4,2.2,0c0.5,0.3,1,0.5,1.4,0.7c-0.2,0.2-0.7-0.3-0.7,0.6l0.7-0.6   c1.5,0.8,1.8,1.8,1.2,3.3c-0.4,1-1.1,1.7-1.8,2.4c-2.1,1.9-4.4,3.4-6.9,4.8c-2.4,1.4-5,2.2-7.4,3.3c-0.3,0.1-0.6,0.2-0.8,0.3   c0.1,2.8,1.6,4.1,5.6,4.4c-0.2-0.2-0.2-0.3-0.4-0.5c1.1-0.2,2.2-0.3,3.2-0.6c1-0.3,2-0.7,3.1-1.1c0.4,0.3,1,0.6,1.5,1.1   c1,0.8,1,2.1-0.1,2.7c-2,1.2-4.1,1.7-6.3,1.7h-1.9C65.3,75.2,64.2,74.6,63,74.2z M60.9,67.8c-0.5,0.2-0.3,0.5-0.2,1   C60.8,68.3,60.8,68.1,60.9,67.8z M70.7,59.3l-0.2-0.6c-2,1.1-3.6,2.4-5.1,3.9C67.4,61.8,69.7,60.3,70.7,59.3z"></path>
	<path class="st0" d="M80,75c-0.4-0.3-0.7-0.7-0.8-1.2c-0.5-2.5-0.5-5,0.2-7.5c1-3.3,2.3-6.5,3.9-9.6c0.2-0.5,0.7-1,1.2-1.5   c0.4,0.8,0.6,1.4,0.9,2.1c0.5-0.2,0.8-0.3,1.3-0.5c0.7,0.7,0.4,1.6,0.3,2.5c-0.1,0.9-0.2,1.8-1.1,2.3c-0.2,0.1-0.3,0.4-0.4,0.6   c-1.2,2.5-2.1,5.2-2.5,7.9v0.4c0,0.1,0.1,0.2,0.2,0.4c0.7-0.6,1.5-1,2.2-1.6c1.7-1.7,3.4-3.4,5.1-5.2c0.7-0.7,1.4-1.4,2.1-2.2   c0.2-0.2,0.4-0.4,0.6-0.7l7.2-9.3c0.1-0.1,0.2-0.1,0.3-0.2l1.8,1.5c0.5,0.4,0.9,1.2,0.7,1.7c-0.2,0.6-0.5,1.2-0.8,1.6   c-2.5,3.2-5.1,6.4-7.6,9.6c-0.3,0.4-0.6,0.7-0.9,1c-1.1,1-2.1,2.2-3,3.5c-1.3,1.8-3,3.3-5,4.5C83.9,76.6,81.9,76.4,80,75z    M80.1,73.8c-0.1-0.3-0.2-0.6-0.2-1c-0.2,0.1-0.3,0.1-0.4,0.1c0.2,0.3,0.3,0.6,0.4,0.9C79.9,73.8,80,73.8,80.1,73.8z"></path>
	<path class="st0" d="M102.2,75.7c-0.6-1.5-0.4-3.1-0.3-4.7c0.3-3.6,1.9-6.9,3.6-10c0.4-0.7,0.6-1.4,1-2.1c0.4-0.8,0.9-1.6,1.6-2.2   c0.2,0.2,1,0.4,1.3,0.6c-0.5,0.5-1.1,0.8-1.7,1.4l0.6,0.4c0.2-0.2,0.4-0.4,0.6-0.6c0.2-0.3,0.7,0.1,0.8-0.3   c0.2-0.3,0.4-0.5,0.7-0.3c0.3,1,0.3,1.2-0.4,1.8c-0.3,0.3-0.5,0.5-0.7,0.9c-0.4,0.6-0.7,1.3-1.1,1.9l-0.2-0.6   c-0.7,1.5-1.5,2.9-2.1,4.3c-0.2,0.5-0.1,1.1-0.1,1.7c0,0.2,0.1,0.5,0,0.6c-0.4,1-0.4,2-0.5,3c-0.2,1.3,0,2.5,0.4,3.8   c0,0.2,0.1,0.3,0.2,0.5c0.7-0.1,1.2-0.3,1.5-0.9c-0.2-0.1-0.3-0.1-0.3-0.1l1.6-1.4c0.4,0.4-0.5,0.5-0.5,1.1c0.6,0.2,1.3,0.2,2,0.1   c-0.4,0.4-0.6,0.8-0.8,1.1c-0.6,0.5-1.3,1-1.9,1.4c-0.2,0.1-0.3,0.2-0.4,0.3C105,78.4,102.9,77.8,102.2,75.7z M110.5,52.7   c-0.3,0-0.5,0.2-0.6,0.1c-0.2-0.1-0.4-0.4-0.4-0.6c0.1-1,0.3-2,1.2-2.7c0.8,0.1,1.2,0.6,1.4,1.4c0.3-0.6,0.7-0.8,1.3-0.5   c0.1,0.5,0.4,1,0.2,1.5c-0.4,0.7-1,1.2-1.5,1.6C111.4,53.8,111,53.5,110.5,52.7z"></path>
	<path class="st0" d="M136.6,65c-1,3.6-1.8,7.1-2.7,10.7l-0.6,2.5c-0.1,0.5-0.2,1-0.1,1.4c0.3,1.1,0,1.8-0.8,2.7   c-0.6,0.3-1.4,0.5-2.1-0.3c-0.2-0.2-0.4-0.3-0.6-0.4c-1-0.5-1.3-1-1.1-2L130,74c0.4-1.6,0.8-3.1,1.3-4.7c0.2-0.9,0.3-1.9,1.1-2.6   c0.2-0.1,0.3-0.4,0.3-0.6c0.2-0.6,0.4-1.3,0.5-1.9c0.1-0.6-0.1-1.1-0.1-1.7c-1-0.2-1.6,0.1-2.3,0.4c-4.4,2-8.1,4.9-11.3,8.5   c-0.3,0.3-0.6,0.7-1.1,0.9c-0.8,0.3-1.2-0.1-1.2-0.9c0.2-1.1,0.4-2.1,0.7-3.2c0.5-2.2,1.6-4.2,2.6-6.2l1.4-2.7   c-0.1,0-0.3,0.1-0.6,0.1c1-1.8,1.8-3.6,3.3-5.1c0.3,0.3,0.5,0.4,0.8,0.8c-0.5,0.4-0.9,0.8-1.3,1.2c0.6,1,0.4,2,0.2,3.1   c0.8-1.2,1.6-2.1,2.4-3.3c0.1,0.2,0.1,0.5,0.1,0.7s-0.3,0.5-0.2,0.5c0.7,1.1-0.1,1.7-0.7,2.4c-0.4,0.5-0.7,1.2-0.8,1.8l2.9-1.4   c-0.2,0.6-0.3,0.8-0.5,1.3c0.8-0.3,1.5-0.5,2.3-0.8c-0.3-0.2-0.4-0.3-0.6-0.4c2-2.8,5.3-1.8,6.5,0.1   C136.6,61.5,137.1,63.1,136.6,65z M122.4,58.3c-0.1,0.2-0.3,0.3-0.4,0.5c-0.1,0.1,0,0.2,0,0.4C122.3,59.1,122.7,58.9,122.4,58.3z"></path>
	<path class="st0" d="M237.6,41.4c-0.7,2.7-1.5,5.3-2.4,8c-1.2,3.5-2.6,7.1-3.9,10.6c-0.1,0.2-0.2,0.4-0.4,0.6   c-0.4-0.4-0.7-0.8-0.4-1.4c0.8-2.1,1.6-4.2,2.4-6.3c0.4-1.1,0.7-2.1,1-3.1l-0.4-0.2c-2.2,5.1-4,10.5-5.9,15.7l-6,15.7h-0.1l0.3-2.1   c-1.3,2.6-2.3,6.7-2.2,8.2c0.5-1.3,1-2.3,1.4-3.6l1.2-0.8c0-0.2-0.1-0.4-0.1-0.5c0.6-0.4,0.6-1,0.7-1.5c0.8-2.1,1.4-4.2,2.4-6.1   c0.5-1,0.8-2,1.2-3.1c0.3-0.6,0.4-1.3,0.6-2c0.2-0.4,0.6-0.7,0.6-1.4c0-0.5,0.5-1,0.7-1.5c0.7-1.8,1.3-3.6,2-5.4   c0.1-0.3,0.4-0.5,0.5-0.7c-0.1,0.6-0.2,1.2-0.4,1.7l-10,27.6l-0.3-0.9h-0.3c-0.3,0.8-0.6,1.6-0.8,2.4c-0.9,3-1.8,5.9-3.2,8.7   c-0.9,2-1.3,4.1-1.4,6.3c0.8-2.2,1.5-4.4,2.3-6.5h0.1l-0.6,3.9c-1.1,5.2-2.1,10.4-3.1,15.6c-0.9,4.7-1.7,9.3-2.6,14l-0.1,0.6   c-1.2,2.9-1,5.9-1.2,8.9c-0.3,3.6-0.5,7.3-0.7,11c-0.1,1-0.2,2,0,3c0.4,1.3,1.2,2,2.3,2.4c0.2,0.1,0.4,0.2,0.5,0.3   c0.1,0,0.1,0.1,0.1,0.3l-1.8,0.2c0.5,1.1,1.4,1,2.3,1.3c0.1,0.3,0.2,0.7,0.3,1c-0.2,0.1-0.2,0.2-0.3,0.2c-2,0.6-3.7,0.2-5.2-1.1   c-1.1-1-1.4-2.3-1.6-3.7c-0.7-3.7-0.5-7.6-0.2-11.4c1-10.9,3-21.6,5.2-32.4c1.7-8,3.6-15.9,6.2-23.7c1.6-4.9,3.2-9.7,4.8-14.5   c0-0.1,0-0.1,0.1-0.2c1.7-3.3,2.3-6.9,3.7-10.3c1.4-3.4,2.6-6.8,3.9-10.3c1.5-4.2,2.9-8.4,4.3-12.7c0.3-0.8,0.4-1.6,0.3-2.5   l-1.6,1.4c-1.1,1.1-2.2,2-3.2,3.1c-0.6,0.6-1,1.5-1.6,2.2c-3.2,3.6-6.4,7.3-9.7,10.9c-1.2,1.3-2.5,2.4-3.7,3.6   c-0.6,0.6-1.2,1.4-1.8,2.1c-0.7,0.8-1.3,1.8-2.2,2.4c-1.5,1-2.6,2.3-3.7,3.6c-1.9,2.2-4.3,3.7-6.9,4.7c-0.7,0.3-1.3,0.2-1.8-0.4   c-2-0.2-2.7-0.8-2.8-2.7c-0.1-1-0.1-2.1,0.1-3.1c0.5-4.6,1.6-9.2,2.6-13.8c0.4-1.5,0.6-3,1-4.8c-0.5,0.3-0.7,0.4-1,0.6   c-1.1,1.2-2.2,2.5-3.3,3.6l-6.8,7.2c-0.6,0.6-1.1,1.4-1.6,2.1c-1.5,2.4-3.4,4.4-5.2,6.4c-3.7,4.1-7.5,8.2-11.3,12.2   c-1.2,1.3-2.6,2.5-4,3.6c-1.8,1.4-3.3,1.3-5.3-0.1c-0.5-1.8,0.1-3.6,0.7-5.3c2.5-7.7,6.1-15,9.6-22.2c2.1-4.3,4.4-8.6,6.6-12.8   c0.4-0.8,0.8-1.5,1.3-2.3c0.6,0,1.1-0.1,1.8-0.1l0.6-0.8c0.4,0.2,0.8,0.4,1.2,0.6c0.7,1.1,0.6,2-0.2,3c-0.8,0.9-1.4,2-2,3.1   c-4.7,9-9.2,18.1-13.1,27.5c-0.5,1.1-0.9,2.3-1.2,3.6c0.2-0.2,0.3-0.2,0.5-0.4c1.5-1.3,2.9-2.7,4.3-4.1c1.4-1.3,2.5-2.9,3.6-4.3   c1.8-2.4,3.9-4.6,5.9-6.9c3-3.3,6-6.5,8.9-10c1.3-1.6,2.5-3.2,3.9-4.8c1.1-1.2,2.1-2.3,3.2-3.5c0.3-0.3,0.6-0.7,1-1   c0.9-0.6,1.6-1.6,3-0.9c1.6,0.8,3,1.7,2.8,3.7c-0.1,1.8-0.4,3.6-0.7,5.4c-0.6,3.4-1.3,6.8-2.2,10c-0.4,1.6-0.6,3.3-0.9,4.9   c-0.1,0.5-0.1,1.2-0.1,1.9c1.7-0.8,3.1-1.8,4.2-3c3.2-3.1,6.3-6.1,9.3-9.3c5.5-5.8,10.9-11.8,16.4-17.6c0.9-1,1.9-1.9,2.9-2.8   c0.8-0.6,1.6-1.2,2.5-1.8c0.5,0.6,0.9,1.1,1.3,1.6c0.2-0.1,0.4-0.2,0.6-0.2c1.1-0.3,1.5-0.1,1.8,1C238,38.3,238,39.9,237.6,41.4z    M164.3,71.8l-0.3-0.2c-1,1.8-1.8,3.7-2.5,5.6c-0.1,0.2,0.1,0.5,0.1,1.1L164.3,71.8z M195.6,70.9c0.5,0.4,1,0.4,1.6-0.2   c-0.6-0.4-1.1-0.7-1.6-1.1V70.9z M199,73c-0.8-0.8-1.7-1.3-3-0.9c0.5,0.1,0.8,0.2,1.2,0.3l0.2,0.7C197.9,73.1,198.4,73.1,199,73z    M199.8,69.9c-0.8-0.2-1.3-0.2-1.4,0.7C198.8,70.4,199.2,70.2,199.8,69.9z M211.1,63l-0.3-0.4c-1.3,1.1-2.7,2.2-4.2,3.5   C208.9,65.9,209.9,64.3,211.1,63z M207.9,159.9l0.9,1.4c0.4-0.2,0.6-0.3,1-0.4C209.2,159.6,209.2,159.6,207.9,159.9z"></path>
	<path class="st0" d="M238.9,69.9c-0.4,0.5-0.7,1.2-1.2,2.1c1.3-0.7,2.3-1.3,3.2-2c3.4-2.6,6.9-5.2,10.3-7.8l2.6-2.1   c0.3-0.2,0.7-0.3,1.1-0.5l0.8,1.8c0.7-0.2,1.2-0.9,2-0.4c1,1.3,0.5,2.6,0,4c-0.3,0.8-0.7,1.6-1.2,2.4l-4.4,8.9   c-0.2,0.3-0.4,0.6-0.6,1c-0.5-0.6-0.1-1.1,0.1-1.6c0.3-0.6,0.5-1.3,0.8-1.9c0.7-1,1.3-2,1.6-3.1c-0.7,0.9-1.7,1.7-1.6,3.1   c-0.7,0.3-0.9,1-1.2,1.6c-0.4,0.8-0.7,1.6-1.2,2.5l-0.8-1c-0.2,0.1-0.4,0.2-0.7,0.4c-0.2-0.2-0.4-0.4-0.7-0.6   c0.3-1,0.8-1.7,0.6-2.8c-0.1-0.3,0.2-0.6,0.4-0.9l2.5-4.9c0.1-0.3,0.2-0.6,0.5-1.2l-4.5,3.2c-0.2,0-0.3,0-0.5,0.1   c-0.5-0.2-0.6-0.1-1.1,0.6c0.2-0.1,0.5-0.1,0.8-0.1c0.4,0.2,0.7-0.1,0.9-0.4c0.5-0.2,1-0.4,1.7-0.6c-2.3,2.1-4.7,3.6-7.1,5.1   c-1.3,0.8-2.6,1.4-3.9,2.1c-1.6,0.8-3.3,0.6-4.9-0.1c-0.8-0.3-1.1-1-1.1-1.8c0.1-1.8,0.6-3.5,1.6-5c1.2-1.7,2.3-3.3,3.6-4.9   c2.8-3.2,5.9-6.1,9.4-8.6c1.3-0.8,2.7-1.4,4.2-1.8c0.6-0.2,1.2-0.6,1.8-0.9c0.6-0.3,1.3-0.7,2-0.8c1.1-0.3,1.8,0.4,2.5,1.2   c-0.2-0.1-0.4-0.2-0.7-0.3c-0.1,0.3-0.2,0.5-0.2,0.9c0.5,0.1,1,0.2,1.4,0.2c1.1,1.1,1.4,2.2,0.7,3.6c-1.2,0.5-1.3,0.5-2-0.5   c-0.2,0.1-0.5,0.2-0.7,0.4c-0.2-0.2-0.4-0.3-0.5-0.4c-0.1-0.2-0.2-0.3-0.3-0.6c-0.7,0.3-1.4,0.5-2,0.9c-2,1.3-4.1,2.6-6,3.9   c-1.1,0.7-2.1,1.5-3.2,2.3C241.8,66.2,240.5,68.1,238.9,69.9z M237,74.6c-0.3,0.1-0.6,0.2-1,0.2C236.9,75.2,237.1,75.1,237,74.6z    M238,73.8c0.3,0.1,0.5,0.2,0.7,0.3c0.1-0.2,0.2-0.4,0.5-0.8L238,73.8z M245.1,71.3c0.1,0.1,0.1,0.1,0.1,0.2l0.3-0.4L245.1,71.3z"></path>
	<path class="st0" d="M281.2,59c0,1.2-1,2.5-2.3,3c-0.2-0.3-0.5-0.6-0.7-1c-0.1,0-0.2-0.1-0.3-0.1c-0.5-0.1-1,0.5-1.5-0.1   c-0.1-0.1-0.4,0.1-0.6,0.2c-0.7,0.3-1.5,0.7-2.2,1.1c-1.7,0.9-3.1,2.1-4.5,3.4v-0.1c-0.5,0.7-0.9,1.4-1.5,2.1   c-0.7,1-1.6,1.7-2.4,2.6c-0.5,0.6-1,1.3-1.3,2c-0.6,1.4-1.5,2.7-2.3,4.1l-1.9-1.1c-0.2-0.8-0.5-1.7-0.7-2.6   c2.2-6,5.4-11.7,7.3-17.9l1.6,0.8c-0.1,0.3-0.1,0.7-0.1,1.1c0.5,0.1,1,0.2,1.6,0.3c-0.3,1.2-0.5,2.2-0.8,3.4c0.4-0.3,0.7-0.5,1-0.7   c1.9-1.6,4.1-2.8,6.6-3.3c0.6-0.2,1.3-0.2,1.8-0.2c0.3,0,0.6,0.2,0.8,0.5c0.4,0.4,0.6,0.9,1,1.3c0.2,0.2,0.5,0.1,0.8,0.2   C281.1,58.3,281.2,58.5,281.2,59z M269.1,65.5c-0.1-0.2-0.1-0.3-0.2-0.5c-1.4,0.8-2.4,2.1-3.5,3.2c-0.2,0.2-0.2,0.6-0.4,1.3   c1.2-1.3,2.1-2.4,3.1-3.5C268.4,65.8,268.8,65.7,269.1,65.5z M278.7,57.1c-0.8-0.6-1.4-0.4-2-0.3c-2.2,0.5-4.3,1.3-6.3,2.9   C273.3,58.8,275.9,58,278.7,57.1z"></path>
	<path class="st0" d="M289.3,78.6l-0.5,0.4c-0.9-0.3-0.9-1-0.9-1.7c0.1-2.3-0.5-4.5-1.6-6.4c-0.8-1.4-1.8-2.6-2.7-3.9   c-0.4-0.6-0.9-1.1-1.4-1.6c-1.3-1.6-1.4-3.3-0.4-5.1c0.1-0.1,0.2-0.2,0.2-0.2c0.3-2,1.9-2.9,3.4-3.6c2.3-1,4.7-1.7,7-2.6   c0.1-0.1,0.3,0,0.5,0c-1.1,1.2-2.6,1.5-3.7,2.5c1.3-0.4,2.6-0.8,3.9-1.3c0.2-0.1,0.3-0.2,0.5-0.3c2.1-0.4,3-2.1,3.7-3.9l0.6-0.6   c-0.1-0.1-0.1-0.1-0.1-0.1c-0.2,0.1-0.3,0.2-0.5,0.2c0.3-0.7,0.6-1.5,0.9-2.2c2.6-4.8,5.2-9.6,7.8-14.4c0.3-0.5,0.6-0.8,0.9-1.4   c0.3,0.5,0.6,0.8,0.8,1.2c0.3-0.3,0.5-0.6,0.8-0.9c0.8,0.3,1.5,0.8,1.5,1.7c-0.1,0.7-0.3,1.4-0.6,2c-1,1.7-2.2,3.4-3.2,5.2   c-1.6,3-3.1,6-4.7,9c-0.2,0.4-0.4,0.9-0.6,1.4c0.9,0.1,1.7,0.2,2.5,0.4c2.4,0.3,4,1.8,5.4,3.7c0.1,0.2,0.2,0.4,0.2,0.6   c0,0.3-0.1,0.5-0.1,0.8c0,0.3,0.1,0.5,0.2,0.7c-0.6,0.6-1.2,0.7-1.8,0.2c-0.3-0.2-0.5-0.3-0.8-0.2c-0.3,0.1-0.7-0.3-0.9-0.6   c-0.5-0.8-1.3-1.1-2.2-1c-1.5,0.1-3.1,0.3-4.8,0.4c-1,2.5-2,5-2.9,7.4c-1.5,4.3-3,8.6-3.7,13c-0.1,0.4-0.2,0.8-0.4,1.3   c-0.4,1-1.1,1.2-2,0.4C289.5,78.9,289.4,78.7,289.3,78.6z M282.9,61.9c-0.7,0.7-0.2,1.2,0.2,1.7C283.2,63.1,283.4,62.5,282.9,61.9z    M293.5,58.5c-3.5,0.6-7.4,2.5-8.3,4.1c1.6,2.2,3.2,4.3,4.9,6.5L293.5,58.5z"></path>
	<path class="st0" d="M307.6,75.7c-0.6-1.5-0.4-3.1-0.3-4.7c0.3-3.6,1.9-6.9,3.6-10c0.4-0.7,0.6-1.4,1-2.1c0.4-0.8,0.9-1.6,1.6-2.2   c0.2,0.2,1,0.4,1.3,0.6c-0.5,0.5-1.1,0.8-1.7,1.4l0.6,0.4c0.2-0.2,0.4-0.4,0.6-0.6c0.2-0.3,0.7,0.1,0.8-0.3   c0.2-0.3,0.4-0.5,0.7-0.3c0.3,1,0.3,1.2-0.4,1.8c-0.3,0.3-0.5,0.5-0.7,0.9c-0.4,0.6-0.7,1.3-1.1,1.9l-0.2-0.6   c-0.7,1.5-1.5,2.9-2.1,4.3c-0.2,0.5-0.1,1.1-0.1,1.7c0,0.2,0.1,0.5,0,0.6c-0.4,1-0.4,2-0.5,3c-0.2,1.3,0,2.5,0.4,3.8   c0,0.2,0.1,0.3,0.2,0.5c0.7-0.1,1.2-0.3,1.5-0.9c-0.2-0.1-0.3-0.1-0.3-0.1l1.6-1.4c0.4,0.4-0.5,0.5-0.5,1.1c0.6,0.2,1.3,0.2,2,0.1   c-0.4,0.4-0.6,0.8-0.8,1.1c-0.6,0.5-1.3,1-1.9,1.4c-0.2,0.1-0.3,0.2-0.4,0.3C310.4,78.4,308.3,77.8,307.6,75.7z M315.8,52.7   c-0.3,0-0.5,0.2-0.6,0.1c-0.2-0.1-0.4-0.4-0.4-0.6c0.1-1,0.3-2,1.2-2.7c0.8,0.1,1.2,0.6,1.4,1.4c0.3-0.6,0.7-0.8,1.3-0.5   c0.1,0.5,0.4,1,0.2,1.5c-0.4,0.7-1,1.2-1.5,1.6C316.8,53.8,316.3,53.5,315.8,52.7z"></path>
	<path class="st0" d="M342,65c-0.9,3.6-1.8,7.1-2.7,10.7l-0.6,2.5c-0.1,0.5-0.2,1-0.1,1.4c0.3,1.1,0,1.8-0.8,2.7   c-0.6,0.3-1.4,0.5-2.1-0.3c-0.2-0.2-0.4-0.3-0.6-0.4c-1-0.5-1.3-1-1.1-2l1.4-5.6c0.4-1.6,0.8-3.1,1.3-4.7c0.2-0.9,0.3-1.9,1.1-2.6   c0.2-0.1,0.3-0.4,0.3-0.6c0.2-0.6,0.4-1.3,0.5-1.9c0.1-0.6-0.1-1.1-0.1-1.7c-0.9-0.2-1.6,0.1-2.3,0.4c-4.4,2-8.1,4.9-11.3,8.5   c-0.3,0.3-0.6,0.7-1.1,0.9c-0.8,0.3-1.2-0.1-1.2-0.9c0.2-1.1,0.4-2.1,0.7-3.2c0.5-2.2,1.6-4.2,2.6-6.2l1.4-2.7   c-0.1,0-0.3,0.1-0.6,0.1c1-1.8,1.8-3.6,3.3-5.1c0.3,0.3,0.5,0.4,0.8,0.8c-0.5,0.4-0.9,0.8-1.3,1.2c0.6,1,0.4,2,0.2,3.1   c0.8-1.2,1.6-2.1,2.4-3.3c0.1,0.2,0.1,0.5,0.1,0.7s-0.3,0.5-0.2,0.5c0.7,1.1-0.1,1.7-0.7,2.4c-0.4,0.5-0.7,1.2-0.8,1.8l2.9-1.4   c-0.2,0.6-0.3,0.8-0.5,1.3c0.8-0.3,1.5-0.5,2.3-0.8c-0.3-0.2-0.4-0.3-0.6-0.4c2-2.8,5.3-1.8,6.5,0.1C342,61.5,342.5,63.1,342,65z    M327.7,58.3c-0.1,0.2-0.3,0.3-0.4,0.5c-0.1,0.1,0,0.2,0,0.4C327.7,59.1,328,58.9,327.7,58.3z"></path>
</clipPath>
<path clip-path="url(#signature-012)" stroke-width="10" d="M21.9,98.4l4.9-6.6L1.7,89.3l6,4.7l3.4-9.4l29.8-54.4L99.4,6.4l11.9-4.7L85,22.5L31,51.9l-20.4,8.5l-8.9-3  l28.5,15.3l34,25.1l36.1,36.1l17.9,27.6l-5.1,5.1L42.9,65.5l17.9,0.4l6-1.7l11.1-8.5l-2.6-0.9l-13.6,8.9l-0.9,5.1l2.6,5.1l3.8-0.9  l7.7-2.6L79,49.3l8.5,3L80.7,71l1.3,3l4.3-0.9l16.2-21.3l11.1-5.1l-3.8,9.4l-5.5,11.5l-0.4,7.7l1.3,1.7l5.5-3.8l8.9-25.5l9.8,3.8  l-12.3,21.7l10.2-10.6l6.4-2.1l2.1,3l-5.5,20.8l47.2-49.7l3,6.4l-18.7,41.7l0.9,1.7l36.6-39.1l1.3,0.9l-3,24.7l3,1.3l35.7-37.4V40  l-21.3,60.8L207,156l6.4,8.9l10.2-132.6l37,19.1l-3,6.8l-3.4-2.6l-12.3,6.8l-7.2,12.3l3.4,0.4l16.2-12.8h2.1l-8.1,17l19.6-30.2  l1.3,5.1l-10.2,22.5l8.1-14l12.8-3.8l2.1-29.3l28.5-1.3L298,54.4l-8.5,26.4l-0.9-10.2l-6-8.5l3.4-3.8l9.4-2.6l6-1.3l7.7,1.3  l1.3-11.9l8.5,3.8l-2.1,4.7L309,68.4v6.8l1.3,1.7l5.5-3.8L326,45.9l9.4,3.4l-11.5,20.8l8.5-7.2l6-3.4l2.6,3.4l-5.5,20.8"></path>
</svg>