<svg xmlns="http://www.w3.org/2000/svg" width="50" height="50"><path d="M0 0 C1.546875 0.99 1.546875 0.99 3.125 2 C3.125 2.99 3.125 3.98 3.125 5 C-1.72188192 4.21824485 -6.2516367 2.60155722 -10.875 1 C-10.875 1.66 -10.875 2.32 -10.875 3 C-11.535 3 -12.195 3 -12.875 3 C-12.875 2.34 -12.875 1.68 -12.875 1 C-20.28799679 3.02621912 -25.55723776 5.16370388 -29.6875 12 C-30.75518399 14.69730691 -31.45396332 17.1369506 -31.875 20 C-31.215 20 -30.555 20 -29.875 20 C-29.875 20.66 -29.875 21.32 -29.875 22 C-30.535 22 -31.195 22 -31.875 22 C-29.84878088 29.41299679 -27.71129612 34.68223776 -20.875 38.8125 C-18.17769309 39.88018399 -15.7380494 40.57896332 -12.875 41 C-12.875 40.34 -12.875 39.68 -12.875 39 C-12.215 39 -11.555 39 -10.875 39 C-10.875 39.66 -10.875 40.32 -10.875 41 C-3.46200321 38.97378088 1.80723776 36.83629612 5.9375 30 C7.00518399 27.30269309 7.70396332 24.8630494 8.125 22 C7.465 22 6.805 22 6.125 22 C6.125 21.34 6.125 20.68 6.125 20 C6.785 20 7.445 20 8.125 20 C7.795 18.9275 7.465 17.855 7.125 16.75 C6.125 13 6.125 13 6.125 9 C7.115 9 8.105 9 9.125 9 C12.22084101 15.5755663 12.31291147 23.48309114 10.47265625 30.48046875 C7.89453746 36.20101559 3.40996285 40.36869192 -2.171875 43.140625 C-8.68058401 45.20986775 -17.08453487 45.27246784 -23.375 42.4375 C-28.93840585 39.07080376 -32.90849183 34.18556206 -34.875 28 C-35.68094257 20.1561171 -35.97171889 12.40815533 -30.875 6 C-22.86136015 -2.46939187 -10.838389 -5.46766672 0 0 Z " fill="#1EC996" transform="translate(36.875,4)"></path><path d="M0 0 C0.99 0 1.98 0 3 0 C2.41257755 3.44712983 1.24628669 5.14848172 -1.16796875 7.64453125 C-1.81443359 8.32193359 -2.46089844 8.99933594 -3.12695312 9.69726562 C-3.80693359 10.39529297 -4.48691406 11.09332031 -5.1875 11.8125 C-6.51577711 13.19261231 -7.84261551 14.57411084 -9.16796875 15.95703125 C-9.81040527 16.62686035 -10.4528418 17.29668945 -11.11474609 17.98681641 C-13.84869913 20.90629022 -16.42671094 23.93846636 -19 27 C-22.09893473 25.51854822 -24.30373018 23.9930886 -26.75 21.5625 C-27.36359375 20.96566406 -27.9771875 20.36882813 -28.609375 19.75390625 C-30 18 -30 18 -30 15 C-25.75177626 15.47202486 -23.80010291 17.96655518 -21 21 C-16.92923213 19.42329414 -14.45027438 16.50213735 -11.625 13.3125 C-11.13966797 12.77592773 -10.65433594 12.23935547 -10.15429688 11.68652344 C-7.5252411 8.76711009 -4.98640227 5.79240679 -2.5 2.75 C-1.675 1.8425 -0.85 0.935 0 0 Z " fill="#1FC995" transform="translate(45,4)"></path></svg>